<svg width="190" height="96" viewBox="0 0 190 96" fill="none" xmlns="http://www.w3.org/2000/svg">
<path fill-rule="evenodd" clip-rule="evenodd" d="M170.225 68.1406C170.216 68.1383 170.206 68.1362 170.197 68.1343L17.2472 32.8375L0 0L164.432 58.0352C164.432 58.0352 180.296 62.6792 187.26 75.4463C191.823 83.8128 190.073 90.0182 186.474 93.8462C186.399 92.814 186.152 91.8341 185.713 90.9224C182.105 83.4285 167.56 82.124 166.554 82.0337L166.531 82.0317L34.5652 65.8117L19.1451 36.4519L169.464 71.1426C170.927 71.5463 173.554 72.5933 174.445 73.705C174.572 73.8636 174.729 73.9957 174.907 74.0936C175.085 74.1916 175.28 74.2535 175.482 74.2759C175.684 74.2983 175.888 74.2806 176.084 74.224C176.279 74.1674 176.461 74.0729 176.619 73.9459C176.778 73.819 176.91 73.662 177.008 73.484C177.106 73.3059 177.168 73.1104 177.19 72.9084C177.213 72.7065 177.195 72.5021 177.138 72.3069C177.082 72.1118 176.987 71.9297 176.86 71.7711C175.051 69.5081 170.743 68.2809 170.258 68.1492C170.247 68.1461 170.236 68.1432 170.225 68.1406ZM181.375 92.3458C181.933 93.5059 181.167 95.4658 179.4 95.6844C178.201 92.6662 174.159 87.6694 160.563 88.2122C141.22 88.986 48.3632 92.0812 48.3632 92.0812L36.3165 69.1454L166.18 85.1046C166.19 85.1062 166.2 85.1078 166.21 85.1094C166.216 85.1103 166.222 85.1112 166.228 85.112C166.349 85.122 178.474 86.3056 181.375 92.3458Z" fill="#FC6666"/>
</svg>
