<svg width="354" height="328" viewBox="0 0 354 328" fill="none" xmlns="http://www.w3.org/2000/svg">
<path d="M52.23 303.24C121.14 336.08 232.86 336.09 301.77 303.24C370.68 270.39 370.67 217.15 301.77 184.31C232.87 151.47 121.14 151.47 52.23 184.31C-16.68 217.15 -16.67 270.4 52.23 303.24Z" fill="#F5F5F5"/>
<path d="M301.53 278.97C314.222 278.97 324.51 274.068 324.51 268.02C324.51 261.972 314.222 257.07 301.53 257.07C288.838 257.07 278.55 261.972 278.55 268.02C278.55 274.068 288.838 278.97 301.53 278.97Z" fill="#EBEBEB"/>
<path d="M47 269.59L55.13 264.9C59.6692 261.196 63.1241 256.335 65.13 250.83C67.64 243.91 67.29 238.65 65.49 236.01C63.28 232.76 57.55 233.33 57.32 240.17C56.84 253.65 52.91 263 47 269.59Z" fill="#6A84E4"/>
<path opacity="0.2" d="M47 269.59L55.13 264.9C59.6692 261.196 63.1241 256.335 65.13 250.83C67.64 243.91 67.29 238.65 65.49 236.01C63.28 232.76 57.55 233.33 57.32 240.17C56.84 253.65 52.91 263 47 269.59Z" fill="black"/>
<path d="M47 270.09C46.8941 270.089 46.7914 270.054 46.7066 269.99C46.6218 269.927 46.5594 269.838 46.5282 269.737C46.4971 269.636 46.4989 269.527 46.5334 269.427C46.5678 269.327 46.6332 269.241 46.72 269.18C65.52 256.18 61.88 238.05 61.84 237.87C61.8262 237.804 61.8255 237.737 61.8379 237.671C61.8503 237.605 61.8755 237.542 61.9122 237.486C61.9489 237.429 61.9963 237.381 62.0517 237.343C62.107 237.305 62.1693 237.279 62.235 237.265C62.3007 237.251 62.3684 237.25 62.4343 237.263C62.5003 237.275 62.5631 237.3 62.6193 237.337C62.6755 237.374 62.7239 237.421 62.7618 237.477C62.7996 237.532 62.8262 237.594 62.84 237.66C62.84 237.85 66.68 256.6 47.32 270C47.2261 270.064 47.1136 270.096 47 270.09V270.09Z" fill="white"/>
<path d="M30.71 279C30.71 279 27.88 276.7 28.56 273.58C29.24 270.46 31.07 268.22 27.94 264.2C24.81 260.18 23.94 254.82 27.68 251.92C30.53 249.67 34.98 252.85 36.58 246.92C37.76 242.58 37.36 232.97 42.89 229.77C48.42 226.57 51.89 231.39 51.02 237.91C50.26 243.74 49.18 249.35 50.02 250.91C51.64 253.91 54.41 253.5 54.28 258.98C54.17 264.08 49.34 268.3 49.34 268.3L30.71 279Z" fill="#6A84E4"/>
<path d="M40 274.11C39.8777 274.109 39.76 274.064 39.6682 273.983C39.5765 273.902 39.5168 273.791 39.5 273.67C38.07 261.82 41.5 241.36 44.3 235.28C44.3236 235.213 44.3613 235.151 44.4107 235.099C44.4601 235.048 44.52 235.007 44.5863 234.981C44.6526 234.954 44.7239 234.942 44.7952 234.946C44.8666 234.949 44.9364 234.967 45 235C45.0597 235.027 45.1134 235.065 45.1579 235.113C45.2025 235.161 45.2369 235.218 45.2593 235.279C45.2817 235.341 45.2915 235.406 45.2882 235.472C45.2849 235.537 45.2685 235.601 45.24 235.66C42.47 241.66 39.16 262.18 40.53 273.51C40.544 273.641 40.5057 273.773 40.4233 273.876C40.3409 273.979 40.2211 274.045 40.09 274.06L40 274.11Z" fill="white"/>
<path d="M39.73 264.88C39.6535 264.884 39.5774 264.866 39.51 264.83C36.04 263.14 33.84 257.11 33.75 256.83C33.7255 256.768 33.7137 256.701 33.7154 256.634C33.717 256.568 33.732 256.502 33.7595 256.441C33.787 256.38 33.8265 256.325 33.8756 256.28C33.9246 256.234 33.9823 256.199 34.0451 256.177C34.108 256.154 34.1748 256.144 34.2416 256.147C34.3083 256.151 34.3737 256.168 34.4338 256.197C34.4939 256.226 34.5476 256.267 34.5916 256.318C34.6356 256.368 34.6691 256.426 34.69 256.49C34.69 256.55 36.84 262.39 39.95 263.9C40.052 263.949 40.1342 264.032 40.1831 264.134C40.2321 264.237 40.2448 264.352 40.2192 264.463C40.1936 264.573 40.1313 264.672 40.0424 264.742C39.9535 264.812 39.8434 264.85 39.73 264.85V264.88Z" fill="white"/>
<path d="M39.67 268.88C39.5698 268.88 39.472 268.849 39.3897 268.792C39.3075 268.735 39.2448 268.654 39.21 268.56C39.1602 268.438 39.1607 268.301 39.2113 268.179C39.2618 268.058 39.3584 267.961 39.48 267.91C45.32 265.57 48.96 258.62 49 258.54C49.061 258.422 49.1664 258.333 49.293 258.293C49.4196 258.252 49.557 258.264 49.675 258.325C49.793 258.386 49.882 258.491 49.9223 258.618C49.9626 258.745 49.951 258.882 49.89 259C49.73 259.3 46.04 266.36 39.89 268.84C39.8215 268.872 39.7456 268.886 39.67 268.88V268.88Z" fill="white"/>
<path d="M243.8 215.08C243.8 215.08 239.43 208 239 200.31C238.57 192.62 240.26 189.42 242.58 188.5C244.9 187.58 245.08 190.41 246.27 192.08C247.46 193.75 249.89 192.8 250.79 187.59C251.69 182.38 254.97 173.59 261.79 171.88C269.29 170.02 265.27 178.82 263.38 182.25C261.49 185.68 260.03 190.36 261.27 191.63C262.51 192.9 264.44 190.55 266.27 192.73C268.5 195.36 261.57 204.83 257.59 207.12L243.8 215.08Z" fill="#6A84E4"/>
<path d="M249.79 212.11C249.724 212.107 249.66 212.092 249.6 212.064C249.54 212.037 249.487 211.998 249.442 211.95C249.398 211.901 249.363 211.845 249.34 211.783C249.318 211.721 249.307 211.656 249.31 211.59C249.987 199.22 253.845 187.233 260.51 176.79C260.548 176.736 260.596 176.689 260.652 176.654C260.708 176.619 260.771 176.596 260.836 176.585C260.902 176.575 260.969 176.578 261.033 176.594C261.097 176.611 261.157 176.64 261.21 176.68C261.315 176.758 261.385 176.874 261.406 177.003C261.426 177.132 261.395 177.263 261.32 177.37C254.774 187.66 250.986 199.462 250.32 211.64C250.316 211.706 250.299 211.77 250.271 211.829C250.242 211.888 250.202 211.941 250.153 211.985C250.103 212.029 250.046 212.062 249.984 212.084C249.922 212.105 249.856 212.114 249.79 212.11Z" fill="white"/>
<path d="M250.36 206.2C250.276 206.199 250.194 206.179 250.12 206.14C247.32 204.59 245.77 199.99 245.71 199.8C245.688 199.738 245.678 199.672 245.682 199.605C245.686 199.539 245.703 199.475 245.731 199.415C245.76 199.356 245.801 199.303 245.85 199.259C245.9 199.215 245.957 199.181 246.02 199.16C246.146 199.119 246.283 199.13 246.401 199.19C246.519 199.25 246.609 199.354 246.65 199.48C246.65 199.48 248.15 203.91 250.65 205.26C250.763 205.327 250.846 205.435 250.882 205.562C250.917 205.689 250.902 205.824 250.84 205.94C250.795 206.026 250.725 206.097 250.64 206.143C250.554 206.189 250.457 206.209 250.36 206.2Z" fill="white"/>
<path d="M250.85 203.17C250.739 203.169 250.632 203.131 250.545 203.062C250.458 202.993 250.397 202.898 250.37 202.79C250.354 202.727 250.35 202.661 250.359 202.597C250.368 202.532 250.391 202.47 250.424 202.414C250.458 202.359 250.502 202.31 250.554 202.271C250.607 202.233 250.667 202.205 250.73 202.19C257.95 200.36 260.45 196.58 260.47 196.54C260.505 196.484 260.552 196.436 260.606 196.398C260.66 196.36 260.721 196.333 260.785 196.319C260.85 196.304 260.917 196.303 260.982 196.314C261.047 196.325 261.109 196.35 261.165 196.385C261.221 196.42 261.269 196.467 261.307 196.521C261.345 196.575 261.372 196.636 261.386 196.7C261.401 196.765 261.402 196.832 261.391 196.897C261.38 196.962 261.355 197.024 261.32 197.08C261.21 197.25 258.61 201.22 250.98 203.16L250.85 203.17Z" fill="white"/>
<path d="M135 199.54C135 199.54 125.41 197.2 124.91 179.24C124.38 159.86 127.26 137.24 115.91 135.41C104.56 133.58 98.26 147.41 98.4 163.56C98.53 177.7 104.23 208.4 134.96 214.42L135 199.54Z" fill="#6A84E4"/>
<path opacity="0.2" d="M135 199.54C135 199.54 125.41 197.2 124.91 179.24C124.38 159.86 127.26 137.24 115.91 135.41C104.56 133.58 98.26 147.41 98.4 163.56C98.53 177.7 104.23 208.4 134.96 214.42L135 199.54Z" fill="black"/>
<path d="M135 212.58H134.91C128 211.32 122.37 207.51 118.18 201.27C105.76 182.74 109.67 148.14 110.96 142.1C110.989 141.971 111.066 141.859 111.176 141.786C111.286 141.713 111.42 141.686 111.55 141.71C111.679 141.741 111.792 141.821 111.865 141.932C111.937 142.044 111.964 142.179 111.94 142.31C110.67 148.31 106.78 182.47 119.01 200.71C120.79 203.539 123.139 205.966 125.907 207.839C128.675 209.712 131.802 210.989 135.09 211.59C135.155 211.602 135.217 211.627 135.273 211.663C135.329 211.699 135.376 211.746 135.414 211.801C135.451 211.856 135.477 211.918 135.49 211.983C135.503 212.048 135.503 212.115 135.49 212.18C135.469 212.294 135.408 212.396 135.318 212.47C135.228 212.543 135.116 212.582 135 212.58V212.58Z" fill="white"/>
<path d="M135 258.67C125.09 260.01 109 259.99 99.71 252.67C90.42 245.35 92.36 239.05 95.93 236.42C99.5 233.79 102.6 230.79 96.46 224.95C90.32 219.11 80.46 209.73 77.26 195.66C74.06 181.59 75.64 172.79 81.92 169.86C88.01 167.02 89.62 171.54 93.35 180.86C97.08 190.18 105.47 182.19 112.65 185.1C119.83 188.01 119.54 193.77 119.99 198.72C120.44 203.67 122.81 205.04 126.88 205.04C130.95 205.04 135 207.38 135 212.04V258.67Z" fill="#6A84E4"/>
<path d="M135 242.33C134.957 242.339 134.913 242.339 134.87 242.33C134.44 242.21 124.19 239.23 109.26 225.52C93.36 210.92 85.86 189.02 85.78 188.8C85.7417 188.674 85.7536 188.538 85.8132 188.421C85.8729 188.303 85.9757 188.213 86.1 188.17C86.2247 188.129 86.3607 188.138 86.4786 188.196C86.5965 188.254 86.6868 188.356 86.73 188.48C86.8 188.7 94.23 210.36 109.94 224.78C124.66 238.31 135.03 241.34 135.14 241.37C135.203 241.388 135.262 241.419 135.313 241.46C135.364 241.501 135.407 241.552 135.438 241.61C135.47 241.667 135.49 241.73 135.497 241.796C135.504 241.861 135.498 241.927 135.48 241.99C135.448 242.091 135.383 242.179 135.297 242.24C135.21 242.301 135.106 242.333 135 242.33Z" fill="white"/>
<path d="M113.43 229C113.329 229.002 113.231 228.972 113.148 228.914C113.066 228.857 113.003 228.775 112.97 228.68C109.76 220.44 109.03 202.81 108.97 202.06C108.967 201.928 109.016 201.8 109.105 201.703C109.195 201.606 109.318 201.548 109.45 201.54C109.581 201.542 109.706 201.592 109.802 201.681C109.898 201.769 109.958 201.89 109.97 202.02C109.97 202.2 110.72 220.23 113.87 228.32C113.894 228.382 113.906 228.448 113.904 228.514C113.903 228.58 113.888 228.645 113.861 228.706C113.834 228.766 113.795 228.821 113.747 228.866C113.699 228.911 113.642 228.947 113.58 228.97C113.532 228.987 113.481 228.997 113.43 229V229Z" fill="white"/>
<path d="M113.35 240.85C112.428 240.857 111.506 240.81 110.59 240.71C110.524 240.702 110.461 240.681 110.403 240.649C110.346 240.617 110.295 240.573 110.254 240.521C110.213 240.469 110.183 240.41 110.165 240.346C110.147 240.282 110.142 240.216 110.15 240.15C110.158 240.084 110.179 240.021 110.211 239.963C110.243 239.906 110.287 239.855 110.339 239.814C110.391 239.773 110.45 239.743 110.514 239.725C110.578 239.707 110.644 239.702 110.71 239.71C110.8 239.71 120.11 240.77 124.38 236.42C124.424 236.367 124.479 236.324 124.541 236.294C124.603 236.264 124.67 236.246 124.739 236.243C124.808 236.24 124.877 236.251 124.941 236.276C125.005 236.301 125.064 236.338 125.113 236.387C125.162 236.435 125.201 236.493 125.226 236.557C125.252 236.621 125.264 236.689 125.262 236.758C125.26 236.827 125.243 236.895 125.214 236.957C125.184 237.019 125.142 237.075 125.09 237.12C122 240.31 116.61 240.85 113.35 240.85Z" fill="white"/>
<path d="M144.88 272.05L238.88 217.77C239.087 217.697 239.266 217.562 239.393 217.383C239.52 217.204 239.588 216.99 239.588 216.77C239.588 216.55 239.52 216.336 239.393 216.157C239.266 215.978 239.087 215.843 238.88 215.77L230.19 210.77C229.652 210.499 229.058 210.358 228.455 210.358C227.852 210.358 227.258 210.499 226.72 210.77L132.69 265C132.483 265.073 132.304 265.208 132.177 265.387C132.05 265.566 131.982 265.78 131.982 266C131.982 266.22 132.05 266.434 132.177 266.613C132.304 266.792 132.483 266.927 132.69 267L141.41 272C141.944 272.279 142.537 272.428 143.139 272.437C143.742 272.446 144.338 272.313 144.88 272.05V272.05Z" fill="#E0E0E0"/>
<path d="M236.3 8.2L151.54 57.14C150.28 57.9623 149.231 59.0698 148.479 60.3728C147.727 61.6758 147.292 63.1377 147.21 64.64V265.71C147.21 268.47 149.15 269.59 151.54 268.21L236.3 219.27C237.562 218.449 238.612 217.342 239.364 216.039C240.117 214.736 240.55 213.273 240.63 211.77V10.7C240.63 7.94 238.7 6.82 236.3 8.2Z" fill="#455A64"/>
<path d="M151.54 57.14L236.3 8.2C238.44 6.96 240.21 7.73 240.57 9.88C240.37 8.52824 239.886 7.23414 239.15 6.0828C238.414 4.93146 237.443 3.94898 236.3 3.2L232.78 1.2C231.438 0.519198 229.955 0.164398 228.45 0.164398C226.945 0.164398 225.462 0.519198 224.12 1.2L139.35 50.1C138.073 50.9006 137.02 52.0119 136.29 53.33L148.48 60.33C149.21 59.0223 150.264 57.9239 151.54 57.14V57.14Z" fill="#37474F"/>
<path d="M135 258.67C135.082 260.172 135.517 261.634 136.269 262.937C137.021 264.24 138.07 265.348 139.33 266.17L142.86 268.17C144.082 268.781 145.419 269.127 146.784 269.186C148.149 269.245 149.51 269.014 150.78 268.51C148.78 269.29 147.19 268.14 147.19 265.67V64.64C147.24 63.1313 147.677 61.6608 148.46 60.37L136.27 53.37C135.498 54.6511 135.062 56.1058 135 57.6V258.67Z" fill="#263238"/>
<path d="M153.87 83.93L234 37.68C235.44 36.86 236.6 37.53 236.6 39.18V188C236.552 188.902 236.291 189.78 235.839 190.562C235.388 191.344 234.757 192.008 234 192.5L153.9 238.75C152.46 239.58 151.3 238.91 151.3 237.25V88.43C151.345 87.5309 151.602 86.6552 152.048 85.8735C152.495 85.0917 153.119 84.426 153.87 83.93V83.93Z" fill="white"/>
<path d="M193.92 40.29C193.478 40.5804 193.11 40.9705 192.846 41.4291C192.582 41.8876 192.429 42.4017 192.4 42.93C192.4 43.93 193.08 44.3 193.92 43.81C194.364 43.5214 194.733 43.1317 194.997 42.6728C195.262 42.2139 195.413 41.6989 195.44 41.17C195.44 40.2 194.76 39.81 193.92 40.29Z" fill="#37474F"/>
<path d="M193.92 222.74C192.172 223.884 190.718 225.423 189.675 227.233C188.633 229.044 188.032 231.074 187.92 233.16C187.92 236.99 190.61 238.55 193.92 236.63C195.668 235.486 197.121 233.946 198.164 232.136C199.206 230.326 199.808 228.296 199.92 226.21C199.94 222.38 197.24 220.82 193.92 222.74Z" fill="#37474F"/>
<path d="M179.53 55.77C178.651 56.3534 177.922 57.1352 177.401 58.0524C176.88 58.9695 176.581 59.9964 176.53 61.05C176.53 62.99 177.89 63.78 179.53 62.81C180.418 62.2321 181.157 61.4527 181.687 60.5352C182.217 59.6177 182.523 58.588 182.58 57.53C182.58 55.59 181.22 54.8 179.53 55.77Z" fill="#37474F"/>
<path d="M187 55.11C187 56.41 188 56.9 189.17 56.21L209.17 44.64C209.79 44.2531 210.309 43.7254 210.686 43.0998C211.063 42.4743 211.287 41.7685 211.34 41.04C211.34 39.75 210.34 39.26 209.17 39.95L189.17 51.52C188.552 51.9059 188.033 52.4321 187.656 53.0558C187.279 53.6795 187.054 54.3832 187 55.11V55.11Z" fill="#37474F"/>
<path d="M141.76 90.37C142.47 90.8322 143.06 91.4552 143.484 92.1884C143.908 92.9216 144.153 93.7444 144.2 94.59C144.2 96.15 143.11 96.78 141.76 96C141.053 95.5361 140.464 94.9125 140.042 94.1795C139.62 93.4465 139.376 92.6246 139.33 91.78C139.33 90.23 140.42 89.6 141.76 90.37Z" fill="#37474F"/>
<path d="M141.76 109.15C142.47 109.612 143.06 110.235 143.484 110.968C143.908 111.702 144.153 112.524 144.2 113.37C144.2 114.92 143.11 115.55 141.76 114.78C141.053 114.316 140.464 113.692 140.042 112.959C139.62 112.226 139.376 111.405 139.33 110.56C139.33 109 140.42 108.37 141.76 109.15Z" fill="#37474F"/>
<path d="M141 90.75C141.71 91.2122 142.3 91.8352 142.724 92.5684C143.148 93.3016 143.393 94.1244 143.44 94.97C143.44 96.52 142.35 97.15 141 96.38C140.29 95.9178 139.7 95.2948 139.276 94.5616C138.852 93.8284 138.607 93.0056 138.56 92.16C138.57 90.6 139.66 90 141 90.75Z" fill="#455A64"/>
<path d="M141 109.52C141.711 109.983 142.303 110.608 142.727 111.343C143.151 112.078 143.395 112.903 143.44 113.75C143.44 115.3 142.35 115.93 141 115.15C140.289 114.69 139.697 114.067 139.273 113.333C138.848 112.6 138.604 111.776 138.56 110.93C138.57 109.38 139.66 108.75 141 109.52Z" fill="#455A64"/>
<path d="M252.82 43.89C252.82 42.23 251.66 41.56 250.22 42.39L240.63 47.92L170.12 88.64C169.363 89.1321 168.732 89.7962 168.28 90.5783C167.829 91.3603 167.568 92.2381 167.52 93.14V241.92C167.52 243.58 168.68 244.25 170.12 243.42L240.66 202.69L250.22 197.17C250.977 196.678 251.608 196.014 252.06 195.232C252.511 194.45 252.772 193.572 252.82 192.67V43.89Z" fill="white"/>
<path d="M253.82 43.89C253.883 43.3885 253.797 42.8796 253.572 42.4269C253.347 41.9742 252.994 41.5979 252.556 41.345C252.119 41.092 251.616 40.9737 251.112 41.0049C250.607 41.036 250.123 41.2152 249.72 41.52L240.57 46.81L169.62 87.81C168.707 88.3866 167.947 89.1767 167.407 90.1122C166.867 91.0478 166.563 92.1006 166.52 93.18V241.92C166.48 242.419 166.576 242.92 166.798 243.369C167.02 243.818 167.359 244.199 167.78 244.47C168.138 244.678 168.546 244.785 168.96 244.78C169.546 244.762 170.118 244.593 170.62 244.29L241.62 203.29L250.75 198.02C251.658 197.438 252.414 196.646 252.953 195.712C253.492 194.778 253.8 193.728 253.85 192.65L253.82 43.89ZM240.59 201.58L239.77 202.06L169.66 242.54C169.542 242.631 169.406 242.694 169.26 242.725C169.115 242.756 168.965 242.754 168.82 242.72C168.69 242.64 168.56 242.36 168.56 241.9V93.14C168.612 92.4139 168.828 91.7091 169.191 91.0785C169.555 90.448 170.057 89.9083 170.66 89.5L240.7 49L250.7 43.21C250.818 43.1195 250.954 43.0563 251.1 43.0252C251.245 42.9941 251.395 42.9957 251.54 43.03C251.67 43.11 251.8 43.39 251.8 43.85V192.67C251.748 193.396 251.532 194.101 251.169 194.731C250.805 195.362 250.303 195.902 249.7 196.31L240.57 201.58H240.59Z" fill="#6A84E4"/>
<path d="M210.17 78.46C219.17 73.28 226.42 77.46 226.42 87.85C226.42 98.24 219.14 110.85 210.17 115.99C201.2 121.13 193.92 116.99 193.92 106.61C193.92 96.23 201.2 83.65 210.17 78.46Z" fill="#6A84E4"/>
<path d="M210.17 86.62C213.08 84.94 215.44 86.3 215.44 89.62C215.341 91.449 214.812 93.2289 213.897 94.8152C212.981 96.4015 211.704 97.7496 210.17 98.75C207.26 100.43 204.9 99.07 204.9 95.75C204.999 93.921 205.528 92.1412 206.443 90.5548C207.359 88.9685 208.636 87.6204 210.17 86.62V86.62Z" fill="#6A84E4"/>
<path d="M220.44 104.54C220.44 99.02 216.57 96.78 211.78 99.54L208.78 101.27C204 104.03 200.12 110.75 200.12 116.27V117.76C202.89 118.67 206.37 118.18 210.12 115.99C214.274 113.428 217.787 109.949 220.39 105.82L220.44 104.54Z" fill="#6A84E4"/>
<path opacity="0.7" d="M210.17 86.62C213.08 84.94 215.44 86.3 215.44 89.62C215.341 91.449 214.812 93.2289 213.897 94.8152C212.981 96.4015 211.704 97.7496 210.17 98.75C207.26 100.43 204.9 99.07 204.9 95.75C204.999 93.921 205.528 92.1412 206.443 90.5548C207.359 88.9685 208.636 87.6204 210.17 86.62V86.62Z" fill="white"/>
<path opacity="0.7" d="M220.44 104.54C220.44 99.02 216.57 96.78 211.78 99.54L208.78 101.27C204 104.03 200.12 110.75 200.12 116.27V117.76C202.89 118.67 206.37 118.18 210.12 115.99C214.274 113.428 217.787 109.949 220.39 105.82L220.44 104.54Z" fill="white"/>
<path d="M178.73 138.84L199.64 126.77C200.64 126.22 201.37 126.66 201.37 127.77V128.46C201.338 129.061 201.165 129.646 200.865 130.167C200.564 130.689 200.144 131.132 199.64 131.46L178.73 143.53C177.78 144.08 177 143.63 177 142.53V141.84C177.032 141.239 177.206 140.655 177.507 140.133C177.807 139.612 178.226 139.169 178.73 138.84V138.84Z" fill="#6A84E4"/>
<path opacity="0.1" d="M178.73 138.84L199.64 126.77C200.64 126.22 201.37 126.66 201.37 127.77V128.46C201.338 129.061 201.165 129.646 200.865 130.167C200.564 130.689 200.144 131.132 199.64 131.46L178.73 143.53C177.78 144.08 177 143.63 177 142.53V141.84C177.032 141.239 177.206 140.655 177.507 140.133C177.807 139.612 178.226 139.169 178.73 138.84V138.84Z" fill="black"/>
<path d="M177.87 153.41L241.13 116.89C241.6 116.61 241.99 116.83 241.99 117.39V124.77C241.972 125.07 241.886 125.361 241.736 125.621C241.587 125.881 241.38 126.104 241.13 126.27L177.87 162.79C177.39 163.07 177 162.84 177 162.29V154.91C177.017 154.609 177.105 154.317 177.256 154.056C177.407 153.796 177.617 153.574 177.87 153.41V153.41Z" fill="#6A84E4"/>
<path opacity="0.2" d="M177.87 153.41L241.13 116.89C241.6 116.61 241.99 116.83 241.99 117.39V124.77C241.972 125.07 241.886 125.361 241.736 125.621C241.587 125.881 241.38 126.104 241.13 126.27L177.87 162.79C177.39 163.07 177 162.84 177 162.29V154.91C177.017 154.609 177.105 154.317 177.256 154.056C177.407 153.796 177.617 153.574 177.87 153.41V153.41Z" fill="white"/>
<path d="M178.73 171.67L199.64 159.6C200.64 159.05 201.37 159.5 201.37 160.6V161.29C201.339 161.891 201.166 162.476 200.866 162.998C200.565 163.519 200.145 163.962 199.64 164.29L178.73 176.36C177.78 176.92 177 176.47 177 175.36V174.67C177.034 174.07 177.208 173.485 177.509 172.965C177.809 172.444 178.227 172 178.73 171.67V171.67Z" fill="#6A84E4"/>
<path opacity="0.1" d="M178.73 171.67L199.64 159.6C200.64 159.05 201.37 159.5 201.37 160.6V161.29C201.339 161.891 201.166 162.476 200.866 162.998C200.565 163.519 200.145 163.962 199.64 164.29L178.73 176.36C177.78 176.92 177 176.47 177 175.36V174.67C177.034 174.07 177.208 173.485 177.509 172.965C177.809 172.444 178.227 172 178.73 171.67V171.67Z" fill="black"/>
<path d="M177.87 186.24L241.13 149.72C241.6 149.44 241.99 149.67 241.99 150.22V157.6C241.972 157.899 241.886 158.191 241.736 158.451C241.587 158.711 241.38 158.933 241.13 159.1L177.87 195.62C177.39 195.9 177 195.68 177 195.12V187.74C177.017 187.439 177.105 187.147 177.256 186.886C177.407 186.626 177.617 186.404 177.87 186.24V186.24Z" fill="#6A84E4"/>
<path opacity="0.2" d="M177.87 186.24L241.13 149.72C241.6 149.44 241.99 149.67 241.99 150.22V157.6C241.972 157.899 241.886 158.191 241.736 158.451C241.587 158.711 241.38 158.933 241.13 159.1L177.87 195.62C177.39 195.9 177 195.68 177 195.12V187.74C177.017 187.439 177.105 187.147 177.256 186.886C177.407 186.626 177.617 186.404 177.87 186.24V186.24Z" fill="white"/>
<path d="M203.1 190.43L228.1 176.02C229.1 175.46 229.84 175.91 229.84 177.02V184.74C229.807 185.342 229.632 185.927 229.33 186.449C229.028 186.97 228.606 187.413 228.1 187.74L203.1 202.16C202.1 202.71 201.37 202.26 201.37 201.16V193.43C201.405 192.83 201.579 192.246 201.88 191.725C202.18 191.204 202.598 190.761 203.1 190.43Z" fill="#6A84E4"/>
<path opacity="0.1" d="M203.1 190.43L228.1 176.02C229.1 175.46 229.84 175.91 229.84 177.02V184.74C229.807 185.342 229.632 185.927 229.33 186.449C229.028 186.97 228.606 187.413 228.1 187.74L203.1 202.16C202.1 202.71 201.37 202.26 201.37 201.16V193.43C201.405 192.83 201.579 192.246 201.88 191.725C202.18 191.204 202.598 190.761 203.1 190.43Z" fill="black"/>
</svg>
