<svg width="354" height="344" viewBox="0 0 354 344" fill="none" xmlns="http://www.w3.org/2000/svg">
<g clip-path="url(#clip0_6_109)">
<path d="M317.582 52.1867C295.942 2.84417 243.999 -15.7343 203.015 17.3956C187.011 30.3205 177.026 50.8908 157.43 59.145C139.043 66.886 115.75 64.6072 95.867 68.7995C53.5262 77.6713 -3.47911 111.332 0.86978 163.197C2.7746 185.915 18.1001 211.148 25.6759 232.405C34.3737 256.863 39.5923 287.462 62.6154 302.083C102.086 327.185 149.698 306.667 185.254 286.427C204.389 275.546 214.922 268.857 235.527 272.589C254.602 276.068 271.78 288.245 290.419 273.798C304.414 262.952 305.571 240.972 317.321 228.065C330.559 213.522 343.98 212.47 350.86 190.612C359.201 164.092 346.911 147.523 338.605 123.83C330.299 100.138 327.776 75.4011 317.582 52.1867Z" fill="#6A84E4"/>
<g opacity="0.7">
<path opacity="0.7" d="M317.582 52.1867C295.942 2.84417 243.999 -15.7343 203.015 17.3956C187.011 30.3205 177.026 50.8908 157.43 59.145C139.043 66.886 115.75 64.6072 95.867 68.7995C53.5262 77.6713 -3.47911 111.332 0.86978 163.197C2.7746 185.915 18.1001 211.148 25.6759 232.405C34.3737 256.863 39.5923 287.462 62.6154 302.083C102.086 327.185 149.698 306.667 185.254 286.427C204.389 275.546 214.922 268.857 235.527 272.589C254.602 276.068 271.78 288.245 290.419 273.798C304.414 262.952 305.571 240.972 317.321 228.065C330.559 213.522 343.98 212.47 350.86 190.612C359.201 164.092 346.911 147.523 338.605 123.83C330.299 100.138 327.776 75.4011 317.582 52.1867Z" fill="white"/>
</g>
<path d="M152.916 343.284C227.171 343.284 287.366 339.534 287.366 334.908C287.366 330.282 227.171 326.532 152.916 326.532C78.6609 326.532 18.4654 330.282 18.4654 334.908C18.4654 339.534 78.6609 343.284 152.916 343.284Z" fill="#2F55D4"/>
<path opacity="0.8" d="M152.916 343.284C227.171 343.284 287.366 339.534 287.366 334.908C287.366 330.282 227.171 326.532 152.916 326.532C78.6609 326.532 18.4654 330.282 18.4654 334.908C18.4654 339.534 78.6609 343.284 152.916 343.284Z" fill="white"/>
<path d="M253.949 16.404H118.76C109.426 16.404 101.86 23.9703 101.86 33.3038V318.713C101.86 328.047 109.426 335.613 118.76 335.613H253.949C263.283 335.613 270.849 328.047 270.849 318.713V33.3038C270.849 23.9703 263.283 16.404 253.949 16.404Z" fill="#263238"/>
<path d="M263.334 51.4561H109.366V300.561H263.334V51.4561Z" fill="white" stroke="#263238" stroke-width="1.33739" stroke-miterlimit="10"/>
<path d="M209.953 152.326C222.986 139.293 222.986 118.162 209.953 105.129C196.92 92.0956 175.789 92.0956 162.756 105.129C149.723 118.162 149.723 139.293 162.756 152.326C175.789 165.359 196.92 165.359 209.953 152.326Z" fill="#6A84E4"/>
<path d="M230.17 284.896H142.548C142.351 284.897 142.155 284.859 141.973 284.785C141.79 284.71 141.624 284.6 141.485 284.461C141.345 284.322 141.234 284.157 141.158 283.975C141.082 283.793 141.043 283.597 141.043 283.4C141.042 283.202 141.08 283.006 141.156 282.823C141.231 282.64 141.342 282.473 141.481 282.334C141.621 282.194 141.788 282.083 141.971 282.008C142.154 281.932 142.35 281.894 142.548 281.895H230.17C230.367 281.895 230.562 281.934 230.744 282.01C230.926 282.086 231.091 282.197 231.231 282.337C231.37 282.476 231.48 282.642 231.554 282.825C231.629 283.007 231.667 283.203 231.666 283.4C231.666 283.797 231.508 284.177 231.227 284.458C230.947 284.738 230.566 284.896 230.17 284.896Z" fill="#6A84E4"/>
<path d="M233.022 180.862H139.686C137.76 180.862 136.199 182.423 136.199 184.35V195.352C136.199 197.279 137.76 198.84 139.686 198.84H233.022C234.949 198.84 236.51 197.279 236.51 195.352V184.35C236.51 182.423 234.949 180.862 233.022 180.862Z" fill="#6A84E4"/>
<path d="M233.022 214.487H139.686C137.76 214.487 136.199 216.049 136.199 217.975V228.978C136.199 230.904 137.76 232.466 139.686 232.466H233.022C234.949 232.466 236.51 230.904 236.51 228.978V217.975C236.51 216.049 234.949 214.487 233.022 214.487Z" fill="#6A84E4"/>
<path d="M202.972 145.375L193.152 139.721V135.051C194.574 133.33 195.604 131.321 196.17 129.162C196.508 129.282 196.864 129.344 197.222 129.345C198.44 129.345 199.214 125.57 199.345 122.874C200.762 119.873 198.831 118.116 198.831 118.116C198.831 118.116 199.632 117.316 200.162 114.106C200.693 110.897 198.292 112.236 196.422 109.296C194.552 106.357 193.213 103.156 187.072 103.156C185.38 103.1 183.71 103.555 182.28 104.461C180.85 105.367 179.725 106.682 179.053 108.235C177.524 108.241 176.001 108.419 174.512 108.766C172.634 109.296 172.103 115.446 173.704 117.855C174.42 119.172 174.802 120.644 174.817 122.143C174.391 121.621 173.947 121.482 173.704 122.665C173.173 125.335 175.313 129.075 175.313 129.075L176.417 128.762C176.974 131.069 178.047 133.219 179.557 135.051V139.721L169.737 145.375C168.591 146.037 167.638 146.989 166.976 148.136C166.313 149.282 165.964 150.583 165.963 151.907V155.142C171.803 159.654 178.974 162.102 186.354 162.102C193.734 162.102 200.906 159.654 206.746 155.142V151.907C206.747 150.582 206.398 149.281 205.736 148.134C205.073 146.987 204.12 146.036 202.972 145.375V145.375Z" fill="#263238"/>
<path d="M148.906 227.995C148.681 227.992 148.466 227.901 148.306 227.743C148.22 227.666 148.152 227.572 148.106 227.467C148.059 227.363 148.036 227.249 148.036 227.134C148.039 226.977 148.084 226.824 148.167 226.69L149.732 224.185L146.68 224.281C146.564 224.288 146.449 224.271 146.341 224.231C146.233 224.19 146.135 224.127 146.053 224.046C145.911 223.887 145.833 223.681 145.833 223.468C145.833 223.255 145.911 223.049 146.053 222.89C146.133 222.805 146.231 222.74 146.339 222.698C146.447 222.656 146.564 222.638 146.68 222.646L149.689 222.759L148.141 220.263C148.057 220.127 148.011 219.97 148.01 219.81C148.009 219.696 148.033 219.582 148.08 219.477C148.126 219.372 148.194 219.278 148.28 219.202C148.44 219.043 148.655 218.953 148.88 218.949C149.028 218.95 149.173 218.993 149.298 219.073C149.423 219.154 149.522 219.267 149.585 219.402L151.072 222.089L152.542 219.419C152.612 219.277 152.719 219.156 152.852 219.07C152.986 218.984 153.14 218.936 153.299 218.932C153.408 218.933 153.517 218.956 153.617 219.001C153.718 219.046 153.808 219.111 153.881 219.193C154.041 219.359 154.128 219.581 154.125 219.81C154.124 219.96 154.085 220.107 154.012 220.237L152.437 222.759L155.49 222.646C155.606 222.638 155.722 222.656 155.831 222.698C155.939 222.74 156.036 222.805 156.117 222.89C156.265 223.043 156.346 223.25 156.343 223.464C156.342 223.679 156.262 223.887 156.117 224.046C156.035 224.127 155.937 224.19 155.829 224.231C155.721 224.271 155.605 224.288 155.49 224.281L152.42 224.185L153.951 226.664C154.037 226.803 154.082 226.963 154.081 227.125C154.081 227.356 153.99 227.577 153.827 227.74C153.663 227.903 153.442 227.995 153.212 227.995C153.062 227.993 152.917 227.948 152.793 227.864C152.67 227.781 152.573 227.663 152.516 227.525L151.063 224.916L149.619 227.525C149.555 227.662 149.455 227.778 149.329 227.861C149.203 227.944 149.057 227.99 148.906 227.995V227.995Z" fill="#263238"/>
<path d="M163.014 227.995C162.789 227.992 162.574 227.901 162.414 227.743C162.328 227.666 162.26 227.572 162.213 227.468C162.167 227.363 162.143 227.249 162.144 227.134C162.147 226.977 162.192 226.824 162.275 226.69L163.84 224.185L160.796 224.281C160.68 224.286 160.564 224.268 160.455 224.228C160.346 224.188 160.246 224.126 160.161 224.046C160.046 223.927 159.969 223.776 159.94 223.613C159.912 223.449 159.933 223.281 160.002 223.13C160.07 222.979 160.183 222.852 160.324 222.766C160.466 222.679 160.63 222.638 160.796 222.646L163.797 222.759L162.249 220.263C162.164 220.127 162.119 219.97 162.118 219.811C162.117 219.696 162.141 219.582 162.187 219.477C162.234 219.372 162.302 219.278 162.388 219.202C162.548 219.043 162.763 218.953 162.988 218.949C163.136 218.95 163.281 218.993 163.406 219.073C163.53 219.154 163.63 219.267 163.692 219.402L165.18 222.089L166.65 219.419C166.719 219.277 166.827 219.156 166.96 219.07C167.093 218.984 167.248 218.936 167.406 218.932C167.516 218.932 167.625 218.955 167.726 219C167.826 219.045 167.916 219.111 167.989 219.193C168.07 219.274 168.133 219.371 168.177 219.477C168.22 219.583 168.242 219.696 168.241 219.811C168.238 219.961 168.196 220.108 168.12 220.237L166.545 222.759L169.607 222.663C169.721 222.656 169.836 222.673 169.943 222.716C170.05 222.758 170.146 222.823 170.224 222.907C170.373 223.061 170.454 223.267 170.451 223.481C170.45 223.697 170.369 223.904 170.224 224.064C170.144 224.145 170.048 224.207 169.941 224.248C169.835 224.288 169.721 224.306 169.607 224.299L166.528 224.203L168.059 226.682C168.144 226.82 168.19 226.98 168.189 227.143C168.189 227.373 168.097 227.595 167.934 227.758C167.771 227.921 167.55 228.013 167.319 228.013C167.17 228.011 167.025 227.965 166.901 227.882C166.778 227.798 166.681 227.68 166.624 227.543L165.171 224.933L163.727 227.543C163.661 227.676 163.559 227.789 163.433 227.868C163.308 227.948 163.163 227.992 163.014 227.995V227.995Z" fill="#263238"/>
<path d="M177.13 227.995C176.902 227.994 176.684 227.904 176.522 227.743C176.436 227.666 176.368 227.572 176.321 227.467C176.275 227.363 176.251 227.249 176.252 227.134C176.255 226.977 176.3 226.824 176.382 226.69L177.948 224.185L174.904 224.281C174.74 224.288 174.578 224.245 174.438 224.159C174.298 224.073 174.187 223.948 174.119 223.799C174.051 223.649 174.029 223.483 174.056 223.321C174.082 223.159 174.157 223.009 174.269 222.89C174.351 222.806 174.45 222.741 174.56 222.699C174.669 222.657 174.787 222.639 174.904 222.646L177.905 222.759L176.356 220.263C176.272 220.127 176.227 219.97 176.226 219.81C176.229 219.696 176.254 219.584 176.3 219.479C176.346 219.375 176.413 219.28 176.496 219.202C176.658 219.041 176.876 218.95 177.104 218.949C177.251 218.952 177.394 218.996 177.517 219.076C177.64 219.156 177.738 219.269 177.8 219.402L179.288 222.089L180.757 219.419C180.827 219.277 180.935 219.156 181.068 219.07C181.201 218.984 181.356 218.936 181.514 218.932C181.624 218.932 181.733 218.955 181.834 219C181.934 219.045 182.024 219.111 182.097 219.193C182.178 219.274 182.241 219.371 182.285 219.477C182.328 219.583 182.35 219.696 182.349 219.81C182.346 219.961 182.304 220.108 182.227 220.237L180.653 222.759L183.715 222.646C183.827 222.635 183.941 222.648 184.048 222.684C184.155 222.72 184.253 222.779 184.336 222.857C184.418 222.934 184.483 223.029 184.526 223.133C184.569 223.238 184.589 223.351 184.584 223.464C184.586 223.678 184.509 223.886 184.367 224.046C184.285 224.127 184.187 224.19 184.079 224.231C183.971 224.271 183.856 224.288 183.741 224.281L180.67 224.185L182.193 226.664C182.278 226.803 182.324 226.963 182.323 227.125C182.32 227.24 182.295 227.352 182.249 227.457C182.203 227.561 182.136 227.655 182.053 227.734C181.978 227.816 181.886 227.881 181.785 227.926C181.683 227.97 181.573 227.994 181.462 227.995C181.314 227.993 181.17 227.947 181.048 227.863C180.926 227.78 180.831 227.662 180.775 227.525L179.314 224.916L177.87 227.525C177.805 227.666 177.7 227.786 177.569 227.869C177.438 227.952 177.286 227.996 177.13 227.995V227.995Z" fill="#263238"/>
<path d="M191.238 227.995C191.01 227.994 190.791 227.904 190.629 227.743C190.466 227.582 190.372 227.363 190.369 227.134C190.366 226.978 190.408 226.824 190.49 226.69L192.056 224.185L189.012 224.281C188.895 224.286 188.779 224.268 188.67 224.228C188.561 224.188 188.461 224.126 188.377 224.046C188.235 223.887 188.157 223.681 188.157 223.468C188.157 223.255 188.235 223.049 188.377 222.89C188.461 222.808 188.56 222.745 188.669 222.703C188.778 222.661 188.895 222.642 189.012 222.646L192.021 222.759L190.482 220.263C190.397 220.127 190.352 219.97 190.351 219.81C190.354 219.696 190.379 219.584 190.425 219.479C190.472 219.375 190.538 219.28 190.621 219.202C190.783 219.041 191.001 218.95 191.23 218.949C191.378 218.95 191.523 218.993 191.647 219.073C191.772 219.154 191.872 219.267 191.934 219.402L193.413 222.089L194.883 219.419C194.952 219.277 195.06 219.156 195.193 219.07C195.327 218.984 195.481 218.936 195.639 218.932C195.749 218.932 195.858 218.955 195.959 219C196.059 219.045 196.149 219.111 196.222 219.193C196.303 219.274 196.367 219.371 196.41 219.477C196.453 219.583 196.475 219.696 196.474 219.81C196.471 219.961 196.429 220.108 196.353 220.237L194.778 222.759L197.84 222.646C197.952 222.635 198.066 222.648 198.173 222.684C198.28 222.72 198.378 222.779 198.461 222.857C198.543 222.934 198.608 223.029 198.651 223.133C198.694 223.238 198.714 223.351 198.71 223.464C198.712 223.678 198.634 223.886 198.492 224.046C198.41 224.127 198.312 224.19 198.204 224.231C198.096 224.271 197.981 224.288 197.866 224.281L194.796 224.185L196.318 226.664C196.404 226.803 196.449 226.963 196.448 227.125C196.449 227.24 196.425 227.354 196.379 227.459C196.333 227.564 196.264 227.658 196.179 227.734C196.103 227.816 196.011 227.881 195.91 227.926C195.808 227.97 195.698 227.994 195.587 227.995C195.439 227.993 195.295 227.947 195.173 227.863C195.051 227.78 194.956 227.662 194.9 227.525L193.439 224.916L191.995 227.525C191.929 227.669 191.822 227.79 191.687 227.874C191.553 227.957 191.397 227.999 191.238 227.995Z" fill="#263238"/>
<path d="M205.346 227.995C205.118 227.994 204.899 227.904 204.737 227.743C204.603 227.606 204.517 227.429 204.493 227.239C204.469 227.049 204.509 226.856 204.607 226.69L206.164 224.185L203.119 224.281C203.003 224.286 202.887 224.268 202.778 224.228C202.669 224.188 202.569 224.126 202.485 224.046C202.343 223.887 202.264 223.681 202.264 223.468C202.264 223.255 202.343 223.049 202.485 222.89C202.569 222.808 202.668 222.745 202.777 222.703C202.886 222.661 203.003 222.642 203.119 222.646L206.129 222.759L204.581 220.263C204.496 220.127 204.451 219.97 204.45 219.811C204.453 219.581 204.547 219.362 204.711 219.202C204.873 219.041 205.092 218.95 205.32 218.949C205.468 218.95 205.613 218.993 205.738 219.073C205.863 219.154 205.962 219.267 206.025 219.402L207.503 222.089L208.973 219.419C209.043 219.277 209.15 219.156 209.284 219.07C209.417 218.984 209.571 218.936 209.73 218.932C209.841 218.931 209.951 218.954 210.053 218.999C210.155 219.044 210.247 219.11 210.321 219.193C210.481 219.359 210.568 219.581 210.565 219.811C210.562 219.961 210.52 220.108 210.443 220.237L208.869 222.759L211.93 222.646C212.043 222.635 212.157 222.648 212.264 222.684C212.371 222.72 212.469 222.779 212.551 222.857C212.634 222.934 212.699 223.029 212.741 223.133C212.784 223.238 212.804 223.351 212.8 223.464C212.802 223.678 212.724 223.886 212.583 224.046C212.501 224.127 212.403 224.19 212.295 224.231C212.187 224.271 212.071 224.288 211.956 224.281L208.886 224.185L210.408 226.664C210.494 226.803 210.539 226.963 210.539 227.125C210.54 227.24 210.516 227.354 210.469 227.459C210.423 227.564 210.355 227.658 210.269 227.734C210.193 227.816 210.102 227.881 210 227.926C209.899 227.97 209.789 227.994 209.678 227.995C209.53 227.993 209.386 227.947 209.264 227.863C209.142 227.78 209.047 227.662 208.99 227.525L207.529 224.916L206.085 227.525C206.02 227.666 205.916 227.786 205.785 227.869C205.654 227.952 205.501 227.996 205.346 227.995Z" fill="#263238"/>
<path d="M219.454 227.995C219.229 227.992 219.014 227.902 218.854 227.743C218.768 227.666 218.7 227.572 218.653 227.468C218.607 227.363 218.583 227.249 218.584 227.134C218.587 226.977 218.632 226.824 218.715 226.69L220.271 224.186L217.227 224.281C217.115 224.29 217.003 224.275 216.897 224.237C216.791 224.2 216.694 224.141 216.612 224.064C216.53 223.987 216.466 223.894 216.422 223.791C216.378 223.687 216.356 223.576 216.357 223.464C216.357 223.357 216.377 223.252 216.418 223.153C216.458 223.055 216.517 222.965 216.592 222.89C216.672 222.805 216.77 222.74 216.878 222.698C216.987 222.656 217.103 222.638 217.219 222.646L220.228 222.759L218.68 220.263C218.596 220.127 218.55 219.97 218.549 219.811C218.553 219.581 218.646 219.362 218.81 219.202C218.972 219.041 219.191 218.95 219.419 218.949C219.567 218.95 219.712 218.993 219.837 219.073C219.962 219.154 220.061 219.267 220.124 219.402L221.602 222.089L223.081 219.419C223.15 219.278 223.256 219.158 223.388 219.072C223.519 218.987 223.672 218.938 223.829 218.932C223.94 218.931 224.051 218.954 224.152 218.999C224.254 219.044 224.346 219.11 224.42 219.193C224.58 219.359 224.668 219.581 224.664 219.811C224.663 219.96 224.624 220.107 224.551 220.237L222.976 222.759L226.029 222.646C226.145 222.638 226.261 222.656 226.37 222.698C226.478 222.74 226.576 222.805 226.656 222.89C226.804 223.043 226.885 223.25 226.882 223.464C226.881 223.679 226.801 223.887 226.656 224.046C226.574 224.127 226.476 224.19 226.368 224.231C226.26 224.271 226.144 224.288 226.029 224.281L222.959 224.186L224.481 226.664C224.567 226.803 224.612 226.963 224.612 227.125C224.608 227.355 224.515 227.574 224.351 227.734C224.192 227.896 223.977 227.99 223.751 227.995C223.603 227.993 223.459 227.947 223.337 227.863C223.215 227.78 223.12 227.662 223.063 227.525L221.602 224.916L220.158 227.525C220.096 227.661 219.997 227.777 219.873 227.86C219.748 227.943 219.603 227.99 219.454 227.995Z" fill="#263238"/>
<g style="mix-blend-mode:multiply">
<path d="M263.334 51.7866H109.366V61.4325H263.334V51.7866Z" fill="#6A84E4"/>
</g>
<path d="M203.093 34.0171H169.607C169.002 34.0171 168.423 33.777 167.996 33.3496C167.568 32.9222 167.328 32.3426 167.328 31.7382V31.7382C167.328 31.1338 167.568 30.5542 167.996 30.1269C168.423 29.6995 169.002 29.4594 169.607 29.4594H203.093C203.698 29.4594 204.277 29.6995 204.705 30.1269C205.132 30.5542 205.372 31.1338 205.372 31.7382V31.7382C205.372 32.3426 205.132 32.9222 204.705 33.3496C204.277 33.777 203.698 34.0171 203.093 34.0171V34.0171Z" fill="#6A84E4" stroke="#263238" stroke-width="1.33739" stroke-linecap="round" stroke-linejoin="round"/>
<path d="M195.483 314.634C195.485 312.827 194.95 311.06 193.947 309.557C192.944 308.053 191.518 306.882 189.849 306.189C188.18 305.497 186.343 305.315 184.571 305.667C182.798 306.02 181.17 306.89 179.892 308.167C178.615 309.445 177.745 311.073 177.393 312.846C177.04 314.618 177.222 316.455 177.914 318.124C178.607 319.793 179.779 321.219 181.282 322.222C182.785 323.225 184.552 323.759 186.359 323.758C188.778 323.755 191.097 322.793 192.808 321.083C194.518 319.372 195.48 317.053 195.483 314.634Z" fill="#6A84E4"/>
<path d="M190.986 310.007H181.732V319.261H190.986V310.007Z" fill="#6A84E4" stroke="#263238" stroke-width="1.33739" stroke-linecap="round" stroke-linejoin="round"/>
<path d="M296.595 209.617C296.595 209.617 284.47 178.809 295.264 175.147C306.501 171.329 306.006 191.673 305.571 201.589C304.657 222.776 302.318 226.717 300.569 221.541L296.595 209.617ZM292.95 233.649C296.281 237.998 297.221 233.492 291.211 213.148C288.393 203.58 282.269 184.228 272.876 191.491C263.856 198.449 285.322 223.672 285.322 223.672L292.95 233.649ZM286.514 251.305C289.689 254.123 289.749 250.566 282.208 235.875C278.668 228.995 271.18 215.07 265.048 221.959C259.159 228.604 279.225 244.756 279.225 244.756L286.514 251.305ZM279.556 272.302C282.73 275.128 282.791 271.562 275.25 256.88C271.71 250.001 264.221 236.067 258.089 242.964C252.236 249.627 272.241 265.778 272.241 265.778L279.556 272.302ZM299.648 229.561C294.568 231.544 298.604 233.701 319.818 233.64C329.768 233.64 350.086 233.188 345.754 222.133C341.606 211.513 311.39 225.038 311.39 225.038L299.648 229.561ZM293.863 243.686C288.488 244.617 292.02 247.539 312.825 251.697C322.575 253.654 342.571 257.263 340.527 245.608C338.57 234.371 306.267 241.625 306.267 241.625L293.863 243.686ZM287.392 260.934C282.817 261.595 285.74 264.143 303.231 268.144C311.433 270.023 328.263 273.545 326.802 263.604C325.41 254.036 297.925 259.446 297.925 259.446L287.392 260.934ZM282.478 276.911C277.999 278.051 281.173 280.278 299.004 282.4C307.354 283.391 324.462 285.113 321.966 275.381C319.557 266.039 292.802 274.311 292.802 274.311L282.478 276.911ZM308.693 212.226C306.084 218.071 311.503 217.184 329.925 201.11C338.553 193.569 355.861 177.791 342.154 169.937C328.994 162.388 314.843 198.814 314.843 198.814L308.693 212.226ZM283.156 297.725C280.399 299.334 283.104 299.961 295.751 297.438C301.683 296.264 313.747 293.655 309.667 288.506C305.719 283.548 289.541 293.985 289.541 293.985L283.156 297.725Z" fill="#2F55D4"/>
<path opacity="0.3" d="M296.595 209.617C296.595 209.617 284.47 178.809 295.264 175.147C306.501 171.329 306.006 191.673 305.571 201.589C304.657 222.776 302.318 226.717 300.569 221.541L296.595 209.617ZM292.95 233.649C296.281 237.998 297.221 233.492 291.211 213.148C288.393 203.58 282.269 184.228 272.876 191.491C263.856 198.449 285.322 223.672 285.322 223.672L292.95 233.649ZM286.514 251.305C289.689 254.123 289.749 250.566 282.208 235.875C278.668 228.995 271.18 215.07 265.048 221.959C259.159 228.604 279.225 244.756 279.225 244.756L286.514 251.305ZM279.556 272.302C282.73 275.128 282.791 271.562 275.25 256.88C271.71 250.001 264.221 236.067 258.089 242.964C252.236 249.627 272.241 265.778 272.241 265.778L279.556 272.302ZM299.648 229.561C294.568 231.544 298.604 233.701 319.818 233.64C329.768 233.64 350.086 233.188 345.754 222.133C341.606 211.513 311.39 225.038 311.39 225.038L299.648 229.561ZM293.863 243.686C288.488 244.617 292.02 247.539 312.825 251.697C322.575 253.654 342.571 257.263 340.527 245.608C338.57 234.371 306.267 241.625 306.267 241.625L293.863 243.686ZM287.392 260.934C282.817 261.595 285.74 264.143 303.231 268.144C311.433 270.023 328.263 273.545 326.802 263.604C325.41 254.036 297.925 259.446 297.925 259.446L287.392 260.934ZM282.478 276.911C277.999 278.051 281.173 280.278 299.004 282.4C307.354 283.391 324.462 285.113 321.966 275.381C319.557 266.039 292.802 274.311 292.802 274.311L282.478 276.911ZM308.693 212.226C306.084 218.071 311.503 217.184 329.925 201.11C338.553 193.569 355.861 177.791 342.154 169.937C328.994 162.388 314.843 198.814 314.843 198.814L308.693 212.226ZM283.156 297.725C280.399 299.334 283.104 299.961 295.751 297.438C301.683 296.264 313.747 293.655 309.667 288.506C305.719 283.548 289.541 293.985 289.541 293.985L283.156 297.725Z" fill="white"/>
<path d="M301.944 223.959L299.83 188.794L301.944 223.959ZM295.255 235.562L281.895 205.32L295.255 235.562ZM329.733 226.769L297.717 231.361L329.733 226.769ZM288.332 251.862L270.997 229.622L288.332 251.862ZM291.376 245.043L315.26 246.243L291.376 245.043ZM285.722 262.099L303.988 263.908L285.722 262.099ZM281.313 272.937L272.241 259.29L281.313 272.937ZM280.269 277.755L301.744 277.955L280.269 277.755ZM275.92 318.043C276.064 318.032 276.198 317.965 276.292 317.856C276.386 317.747 276.434 317.605 276.424 317.461C275.059 296.951 282.991 263.36 295.716 235.788C303.849 218.167 335.726 183.532 336.065 183.184C336.168 183.081 336.225 182.942 336.225 182.797C336.225 182.652 336.168 182.513 336.065 182.41C336.015 182.36 335.955 182.319 335.89 182.292C335.824 182.265 335.754 182.251 335.682 182.251C335.611 182.251 335.541 182.265 335.475 182.292C335.41 182.319 335.35 182.36 335.3 182.41C334.978 182.758 302.97 217.523 294.768 235.301C281.808 263.543 273.98 296.525 275.372 317.53C275.383 317.669 275.445 317.798 275.546 317.893C275.648 317.988 275.781 318.042 275.92 318.043V318.043ZM301.935 224.499C302.079 224.49 302.213 224.424 302.309 224.317C302.406 224.209 302.455 224.069 302.448 223.925L300.369 188.742C300.366 188.67 300.349 188.6 300.318 188.535C300.287 188.471 300.244 188.413 300.19 188.365C300.137 188.317 300.074 188.28 300.006 188.257C299.939 188.234 299.867 188.224 299.795 188.229C299.652 188.238 299.517 188.303 299.421 188.411C299.325 188.518 299.275 188.659 299.282 188.803L301.396 223.968C301.402 224.106 301.462 224.237 301.563 224.333C301.663 224.428 301.796 224.481 301.935 224.481V224.499ZM295.446 236.058C295.577 235.999 295.679 235.891 295.731 235.758C295.783 235.625 295.781 235.476 295.725 235.345L282.356 205.103C282.299 204.971 282.191 204.868 282.057 204.816C281.924 204.763 281.775 204.767 281.643 204.824C281.512 204.882 281.408 204.989 281.356 205.123C281.304 205.257 281.307 205.406 281.365 205.537L294.725 235.78C294.767 235.877 294.836 235.96 294.924 236.018C295.012 236.077 295.115 236.109 295.22 236.11C295.31 236.115 295.4 236.097 295.481 236.058H295.446ZM297.76 231.883L329.759 227.308C329.837 227.306 329.913 227.288 329.982 227.255C330.052 227.222 330.114 227.175 330.165 227.116C330.215 227.057 330.252 226.989 330.274 226.914C330.296 226.84 330.301 226.762 330.291 226.686C330.28 226.609 330.254 226.536 330.213 226.47C330.172 226.405 330.118 226.348 330.053 226.305C329.989 226.262 329.917 226.233 329.841 226.22C329.764 226.207 329.686 226.21 329.611 226.229L297.612 230.804C297.469 230.814 297.336 230.879 297.241 230.987C297.147 231.095 297.099 231.236 297.108 231.379C297.117 231.522 297.183 231.655 297.29 231.75C297.398 231.844 297.539 231.892 297.682 231.883H297.76ZM288.636 252.297C288.75 252.208 288.824 252.077 288.841 251.934C288.859 251.79 288.82 251.646 288.732 251.531L271.388 229.248C271.3 229.132 271.169 229.057 271.024 229.038C270.88 229.019 270.734 229.059 270.619 229.148C270.503 229.236 270.428 229.367 270.409 229.512C270.39 229.656 270.43 229.802 270.519 229.917L287.897 252.236C287.947 252.301 288.012 252.353 288.086 252.39C288.16 252.426 288.241 252.445 288.323 252.445C288.453 252.438 288.576 252.386 288.671 252.297H288.636ZM315.738 246.269C315.743 246.125 315.691 245.985 315.593 245.879C315.496 245.774 315.36 245.711 315.217 245.704L291.376 244.495C291.242 244.504 291.116 244.562 291.022 244.658C290.928 244.754 290.873 244.881 290.866 245.015C290.86 245.149 290.903 245.281 290.987 245.386C291.072 245.49 291.191 245.56 291.324 245.582L315.208 246.791C315.352 246.796 315.492 246.744 315.598 246.646C315.703 246.548 315.766 246.413 315.773 246.269H315.738ZM304.492 263.96C304.501 263.889 304.495 263.816 304.475 263.747C304.455 263.678 304.421 263.614 304.375 263.558C304.33 263.502 304.274 263.455 304.21 263.421C304.147 263.388 304.077 263.367 304.005 263.36L285.74 261.56C285.669 261.553 285.597 261.56 285.529 261.58C285.461 261.601 285.398 261.635 285.343 261.68C285.288 261.725 285.242 261.781 285.209 261.844C285.175 261.907 285.155 261.976 285.148 262.047C285.136 262.19 285.18 262.331 285.271 262.442C285.362 262.552 285.493 262.623 285.635 262.638L303.901 264.448H303.953C304.093 264.457 304.232 264.412 304.339 264.321C304.446 264.23 304.514 264.1 304.527 263.96H304.492ZM281.574 273.389C281.694 273.309 281.779 273.185 281.808 273.043C281.837 272.901 281.809 272.753 281.73 272.632L272.702 258.985C272.619 258.868 272.494 258.787 272.353 258.759C272.212 258.732 272.066 258.76 271.945 258.837C271.824 258.917 271.74 259.042 271.711 259.184C271.681 259.325 271.709 259.473 271.789 259.594L280.817 273.241C280.868 273.316 280.937 273.377 281.018 273.419C281.098 273.461 281.187 273.484 281.278 273.485C281.396 273.491 281.512 273.457 281.608 273.389H281.574ZM302.292 277.955C302.289 277.812 302.232 277.675 302.132 277.573C302.031 277.471 301.896 277.412 301.752 277.407L280.278 277.207C280.135 277.207 279.997 277.264 279.896 277.365C279.795 277.466 279.738 277.603 279.738 277.746C279.736 277.818 279.748 277.89 279.774 277.957C279.8 278.024 279.84 278.085 279.89 278.136C279.941 278.187 280.001 278.228 280.068 278.255C280.134 278.282 280.206 278.296 280.278 278.294L301.752 278.494C301.826 278.498 301.899 278.487 301.968 278.461C302.037 278.436 302.1 278.397 302.154 278.347C302.207 278.296 302.25 278.236 302.28 278.168C302.31 278.101 302.325 278.029 302.326 277.955H302.292ZM273.476 310.067C273.519 309.972 277.181 299.882 288.193 297.473C288.334 297.442 288.458 297.356 288.536 297.233C288.615 297.111 288.641 296.963 288.61 296.821C288.575 296.682 288.487 296.562 288.366 296.485C288.244 296.409 288.098 296.383 287.958 296.412C276.346 298.952 272.493 309.606 272.45 309.711C272.405 309.848 272.415 309.998 272.478 310.127C272.542 310.257 272.653 310.357 272.789 310.407H272.963C273.078 310.417 273.194 310.389 273.293 310.328C273.392 310.267 273.468 310.175 273.511 310.067H273.476ZM275.92 318.043C276.064 318.032 276.198 317.965 276.292 317.856C276.386 317.747 276.434 317.605 276.424 317.461C275.059 296.951 282.991 263.36 295.716 235.788C303.849 218.167 335.726 183.532 336.065 183.184C336.168 183.081 336.225 182.942 336.225 182.797C336.225 182.652 336.168 182.513 336.065 182.41C336.015 182.36 335.955 182.319 335.89 182.292C335.824 182.265 335.754 182.251 335.682 182.251C335.611 182.251 335.541 182.265 335.475 182.292C335.41 182.319 335.35 182.36 335.3 182.41C334.978 182.758 302.97 217.523 294.768 235.301C281.808 263.543 273.98 296.525 275.372 317.53C275.383 317.669 275.445 317.798 275.546 317.893C275.648 317.988 275.781 318.042 275.92 318.043V318.043ZM301.935 224.499C302.079 224.49 302.213 224.424 302.309 224.317C302.406 224.209 302.455 224.069 302.448 223.925L300.369 188.742C300.366 188.67 300.349 188.6 300.318 188.535C300.287 188.471 300.244 188.413 300.19 188.365C300.137 188.317 300.074 188.28 300.006 188.257C299.939 188.234 299.867 188.224 299.795 188.229C299.652 188.238 299.517 188.303 299.421 188.411C299.325 188.518 299.275 188.659 299.282 188.803L301.396 223.968C301.402 224.106 301.462 224.237 301.563 224.333C301.663 224.428 301.796 224.481 301.935 224.481V224.499ZM295.446 236.058C295.577 235.999 295.679 235.891 295.731 235.758C295.783 235.625 295.781 235.476 295.725 235.345L282.356 205.103C282.299 204.971 282.191 204.868 282.057 204.816C281.924 204.763 281.775 204.767 281.643 204.824C281.512 204.882 281.408 204.989 281.356 205.123C281.304 205.257 281.307 205.406 281.365 205.537L294.725 235.78C294.767 235.877 294.836 235.96 294.924 236.018C295.012 236.077 295.115 236.109 295.22 236.11C295.31 236.115 295.4 236.097 295.481 236.058H295.446ZM297.76 231.883L329.759 227.308C329.837 227.306 329.913 227.288 329.982 227.255C330.052 227.222 330.114 227.175 330.165 227.116C330.215 227.057 330.252 226.989 330.274 226.914C330.296 226.84 330.301 226.762 330.291 226.686C330.28 226.609 330.254 226.536 330.213 226.47C330.172 226.405 330.118 226.348 330.053 226.305C329.989 226.262 329.917 226.233 329.841 226.22C329.764 226.207 329.686 226.21 329.611 226.229L297.612 230.804C297.469 230.814 297.336 230.879 297.241 230.987C297.147 231.095 297.099 231.236 297.108 231.379C297.117 231.522 297.183 231.655 297.29 231.75C297.398 231.844 297.539 231.892 297.682 231.883H297.76ZM288.636 252.297C288.75 252.208 288.824 252.077 288.841 251.934C288.859 251.79 288.82 251.646 288.732 251.531L271.388 229.248C271.344 229.19 271.29 229.143 271.227 229.107C271.165 229.071 271.096 229.047 271.024 229.038C270.953 229.029 270.88 229.034 270.811 229.053C270.741 229.071 270.676 229.104 270.619 229.148C270.562 229.192 270.514 229.246 270.478 229.309C270.442 229.371 270.418 229.44 270.409 229.512C270.4 229.583 270.405 229.656 270.424 229.725C270.442 229.795 270.475 229.86 270.519 229.917L287.897 252.236C287.947 252.301 288.012 252.353 288.086 252.39C288.16 252.426 288.241 252.445 288.323 252.445C288.453 252.438 288.576 252.386 288.671 252.297H288.636ZM315.738 246.269C315.743 246.125 315.691 245.985 315.593 245.879C315.496 245.774 315.36 245.711 315.217 245.704L291.376 244.495C291.242 244.504 291.116 244.562 291.022 244.658C290.928 244.754 290.873 244.881 290.866 245.015C290.86 245.149 290.903 245.281 290.987 245.386C291.072 245.49 291.191 245.56 291.324 245.582L315.208 246.791C315.352 246.796 315.492 246.744 315.598 246.646C315.703 246.548 315.766 246.413 315.773 246.269H315.738ZM304.492 263.96C304.501 263.889 304.495 263.816 304.475 263.747C304.455 263.678 304.421 263.614 304.375 263.558C304.33 263.502 304.274 263.455 304.21 263.421C304.147 263.388 304.077 263.367 304.005 263.36L285.74 261.56C285.669 261.553 285.597 261.56 285.529 261.58C285.461 261.601 285.398 261.635 285.343 261.68C285.288 261.725 285.242 261.781 285.209 261.844C285.175 261.907 285.155 261.976 285.148 262.047C285.136 262.19 285.18 262.331 285.271 262.442C285.362 262.552 285.493 262.623 285.635 262.638L303.901 264.448H303.953C304.093 264.457 304.232 264.412 304.339 264.321C304.446 264.23 304.514 264.1 304.527 263.96H304.492ZM281.574 273.389C281.694 273.309 281.779 273.185 281.808 273.043C281.837 272.901 281.809 272.753 281.73 272.632L272.702 258.985C272.619 258.868 272.494 258.787 272.353 258.759C272.212 258.732 272.066 258.76 271.945 258.837C271.824 258.917 271.74 259.042 271.711 259.184C271.681 259.325 271.709 259.473 271.789 259.594L280.817 273.241C280.868 273.316 280.937 273.377 281.018 273.419C281.098 273.461 281.187 273.484 281.278 273.485C281.396 273.491 281.512 273.457 281.608 273.389H281.574ZM302.292 277.955C302.289 277.812 302.232 277.675 302.132 277.573C302.031 277.471 301.896 277.412 301.752 277.407L280.278 277.207C280.135 277.207 279.997 277.264 279.896 277.365C279.795 277.466 279.738 277.603 279.738 277.746C279.736 277.818 279.748 277.89 279.774 277.957C279.8 278.024 279.84 278.085 279.89 278.136C279.941 278.187 280.001 278.228 280.068 278.255C280.134 278.282 280.206 278.296 280.278 278.294L301.752 278.494C301.826 278.498 301.899 278.487 301.968 278.461C302.037 278.436 302.1 278.397 302.154 278.347C302.207 278.296 302.25 278.236 302.28 278.168C302.31 278.101 302.325 278.029 302.326 277.955H302.292ZM273.476 310.067C273.519 309.972 277.181 299.882 288.193 297.473C288.334 297.442 288.458 297.356 288.536 297.233C288.615 297.111 288.641 296.963 288.61 296.821C288.575 296.682 288.487 296.562 288.366 296.485C288.244 296.409 288.098 296.383 287.958 296.412C276.346 298.952 272.493 309.606 272.45 309.711C272.405 309.848 272.415 309.998 272.478 310.127C272.542 310.257 272.653 310.357 272.789 310.407H272.963C273.078 310.417 273.194 310.389 273.293 310.328C273.392 310.267 273.468 310.175 273.511 310.067H273.476Z" fill="#2F55D4"/>
<path opacity="0.2" d="M301.944 223.959L299.83 188.794L301.944 223.959ZM295.255 235.562L281.895 205.32L295.255 235.562ZM329.733 226.769L297.717 231.361L329.733 226.769ZM288.332 251.862L270.997 229.622L288.332 251.862ZM291.376 245.043L315.26 246.243L291.376 245.043ZM285.722 262.099L303.988 263.908L285.722 262.099ZM281.313 272.937L272.241 259.29L281.313 272.937ZM280.269 277.755L301.744 277.955L280.269 277.755ZM275.92 318.043C276.064 318.032 276.198 317.965 276.292 317.856C276.386 317.747 276.434 317.605 276.424 317.461C275.059 296.951 282.991 263.36 295.716 235.788C303.849 218.167 335.726 183.532 336.065 183.184C336.168 183.081 336.225 182.942 336.225 182.797C336.225 182.652 336.168 182.513 336.065 182.41C336.015 182.36 335.955 182.319 335.89 182.292C335.824 182.265 335.754 182.251 335.682 182.251C335.611 182.251 335.541 182.265 335.475 182.292C335.41 182.319 335.35 182.36 335.3 182.41C334.978 182.758 302.97 217.523 294.768 235.301C281.808 263.543 273.98 296.525 275.372 317.53C275.383 317.669 275.445 317.798 275.546 317.893C275.648 317.988 275.781 318.042 275.92 318.043V318.043ZM301.935 224.499C302.079 224.49 302.213 224.424 302.309 224.317C302.406 224.209 302.455 224.069 302.448 223.925L300.369 188.742C300.366 188.67 300.349 188.6 300.318 188.535C300.287 188.471 300.244 188.413 300.19 188.365C300.137 188.317 300.074 188.28 300.006 188.257C299.939 188.234 299.867 188.224 299.795 188.229C299.652 188.238 299.517 188.303 299.421 188.411C299.325 188.518 299.275 188.659 299.282 188.803L301.396 223.968C301.402 224.106 301.462 224.237 301.563 224.333C301.663 224.428 301.796 224.481 301.935 224.481V224.499ZM295.446 236.058C295.577 235.999 295.679 235.891 295.731 235.758C295.783 235.625 295.781 235.476 295.725 235.345L282.356 205.103C282.299 204.971 282.191 204.868 282.057 204.816C281.924 204.763 281.775 204.767 281.643 204.824C281.512 204.882 281.408 204.989 281.356 205.123C281.304 205.257 281.307 205.406 281.365 205.537L294.725 235.78C294.767 235.877 294.836 235.96 294.924 236.018C295.012 236.077 295.115 236.109 295.22 236.11C295.31 236.115 295.4 236.097 295.481 236.058H295.446ZM297.76 231.883L329.759 227.308C329.837 227.306 329.913 227.288 329.982 227.255C330.052 227.222 330.114 227.175 330.165 227.116C330.215 227.057 330.252 226.989 330.274 226.914C330.296 226.84 330.301 226.762 330.291 226.686C330.28 226.609 330.254 226.536 330.213 226.47C330.172 226.405 330.118 226.348 330.053 226.305C329.989 226.262 329.917 226.233 329.841 226.22C329.764 226.207 329.686 226.21 329.611 226.229L297.612 230.804C297.469 230.814 297.336 230.879 297.241 230.987C297.147 231.095 297.099 231.236 297.108 231.379C297.117 231.522 297.183 231.655 297.29 231.75C297.398 231.844 297.539 231.892 297.682 231.883H297.76ZM288.636 252.297C288.75 252.208 288.824 252.077 288.841 251.934C288.859 251.79 288.82 251.646 288.732 251.531L271.388 229.248C271.3 229.132 271.169 229.057 271.024 229.038C270.88 229.019 270.734 229.059 270.619 229.148C270.503 229.236 270.428 229.367 270.409 229.512C270.39 229.656 270.43 229.802 270.519 229.917L287.897 252.236C287.947 252.301 288.012 252.353 288.086 252.39C288.16 252.426 288.241 252.445 288.323 252.445C288.453 252.438 288.576 252.386 288.671 252.297H288.636ZM315.738 246.269C315.743 246.125 315.691 245.985 315.593 245.879C315.496 245.774 315.36 245.711 315.217 245.704L291.376 244.495C291.242 244.504 291.116 244.562 291.022 244.658C290.928 244.754 290.873 244.881 290.866 245.015C290.86 245.149 290.903 245.281 290.987 245.386C291.072 245.49 291.191 245.56 291.324 245.582L315.208 246.791C315.352 246.796 315.492 246.744 315.598 246.646C315.703 246.548 315.766 246.413 315.773 246.269H315.738ZM304.492 263.96C304.501 263.889 304.495 263.816 304.475 263.747C304.455 263.678 304.421 263.614 304.375 263.558C304.33 263.502 304.274 263.455 304.21 263.421C304.147 263.388 304.077 263.367 304.005 263.36L285.74 261.56C285.669 261.553 285.597 261.56 285.529 261.58C285.461 261.601 285.398 261.635 285.343 261.68C285.288 261.725 285.242 261.781 285.209 261.844C285.175 261.907 285.155 261.976 285.148 262.047C285.136 262.19 285.18 262.331 285.271 262.442C285.362 262.552 285.493 262.623 285.635 262.638L303.901 264.448H303.953C304.093 264.457 304.232 264.412 304.339 264.321C304.446 264.23 304.514 264.1 304.527 263.96H304.492ZM281.574 273.389C281.694 273.309 281.779 273.185 281.808 273.043C281.837 272.901 281.809 272.753 281.73 272.632L272.702 258.985C272.619 258.868 272.494 258.787 272.353 258.759C272.212 258.732 272.066 258.76 271.945 258.837C271.824 258.917 271.74 259.042 271.711 259.184C271.681 259.325 271.709 259.473 271.789 259.594L280.817 273.241C280.868 273.316 280.937 273.377 281.018 273.419C281.098 273.461 281.187 273.484 281.278 273.485C281.396 273.491 281.512 273.457 281.608 273.389H281.574ZM302.292 277.955C302.289 277.812 302.232 277.675 302.132 277.573C302.031 277.471 301.896 277.412 301.752 277.407L280.278 277.207C280.135 277.207 279.997 277.264 279.896 277.365C279.795 277.466 279.738 277.603 279.738 277.746C279.736 277.818 279.748 277.89 279.774 277.957C279.8 278.024 279.84 278.085 279.89 278.136C279.941 278.187 280.001 278.228 280.068 278.255C280.134 278.282 280.206 278.296 280.278 278.294L301.752 278.494C301.826 278.498 301.899 278.487 301.968 278.461C302.037 278.436 302.1 278.397 302.154 278.347C302.207 278.296 302.25 278.236 302.28 278.168C302.31 278.101 302.325 278.029 302.326 277.955H302.292ZM273.476 310.067C273.519 309.972 277.181 299.882 288.193 297.473C288.334 297.442 288.458 297.356 288.536 297.233C288.615 297.111 288.641 296.963 288.61 296.821C288.575 296.682 288.487 296.562 288.366 296.485C288.244 296.409 288.098 296.383 287.958 296.412C276.346 298.952 272.493 309.606 272.45 309.711C272.405 309.848 272.415 309.998 272.478 310.127C272.542 310.257 272.653 310.357 272.789 310.407H272.963C273.078 310.417 273.194 310.389 273.293 310.328C273.392 310.267 273.468 310.175 273.511 310.067H273.476ZM275.92 318.043C276.064 318.032 276.198 317.965 276.292 317.856C276.386 317.747 276.434 317.605 276.424 317.461C275.059 296.951 282.991 263.36 295.716 235.788C303.849 218.167 335.726 183.532 336.065 183.184C336.168 183.081 336.225 182.942 336.225 182.797C336.225 182.652 336.168 182.513 336.065 182.41C336.015 182.36 335.955 182.319 335.89 182.292C335.824 182.265 335.754 182.251 335.682 182.251C335.611 182.251 335.541 182.265 335.475 182.292C335.41 182.319 335.35 182.36 335.3 182.41C334.978 182.758 302.97 217.523 294.768 235.301C281.808 263.543 273.98 296.525 275.372 317.53C275.383 317.669 275.445 317.798 275.546 317.893C275.648 317.988 275.781 318.042 275.92 318.043V318.043ZM301.935 224.499C302.079 224.49 302.213 224.424 302.309 224.317C302.406 224.209 302.455 224.069 302.448 223.925L300.369 188.742C300.366 188.67 300.349 188.6 300.318 188.535C300.287 188.471 300.244 188.413 300.19 188.365C300.137 188.317 300.074 188.28 300.006 188.257C299.939 188.234 299.867 188.224 299.795 188.229C299.652 188.238 299.517 188.303 299.421 188.411C299.325 188.518 299.275 188.659 299.282 188.803L301.396 223.968C301.402 224.106 301.462 224.237 301.563 224.333C301.663 224.428 301.796 224.481 301.935 224.481V224.499ZM295.446 236.058C295.577 235.999 295.679 235.891 295.731 235.758C295.783 235.625 295.781 235.476 295.725 235.345L282.356 205.103C282.299 204.971 282.191 204.868 282.057 204.816C281.924 204.763 281.775 204.767 281.643 204.824C281.512 204.882 281.408 204.989 281.356 205.123C281.304 205.257 281.307 205.406 281.365 205.537L294.725 235.78C294.767 235.877 294.836 235.96 294.924 236.018C295.012 236.077 295.115 236.109 295.22 236.11C295.31 236.115 295.4 236.097 295.481 236.058H295.446ZM297.76 231.883L329.759 227.308C329.837 227.306 329.913 227.288 329.982 227.255C330.052 227.222 330.114 227.175 330.165 227.116C330.215 227.057 330.252 226.989 330.274 226.914C330.296 226.84 330.301 226.762 330.291 226.686C330.28 226.609 330.254 226.536 330.213 226.47C330.172 226.405 330.118 226.348 330.053 226.305C329.989 226.262 329.917 226.233 329.841 226.22C329.764 226.207 329.686 226.21 329.611 226.229L297.612 230.804C297.469 230.814 297.336 230.879 297.241 230.987C297.147 231.095 297.099 231.236 297.108 231.379C297.117 231.522 297.183 231.655 297.29 231.75C297.398 231.844 297.539 231.892 297.682 231.883H297.76ZM288.636 252.297C288.75 252.208 288.824 252.077 288.841 251.934C288.859 251.79 288.82 251.646 288.732 251.531L271.388 229.248C271.344 229.19 271.29 229.143 271.227 229.107C271.165 229.071 271.096 229.047 271.024 229.038C270.953 229.029 270.88 229.034 270.811 229.053C270.741 229.071 270.676 229.104 270.619 229.148C270.562 229.192 270.514 229.246 270.478 229.309C270.442 229.371 270.418 229.44 270.409 229.512C270.4 229.583 270.405 229.656 270.424 229.725C270.442 229.795 270.475 229.86 270.519 229.917L287.897 252.236C287.947 252.301 288.012 252.353 288.086 252.39C288.16 252.426 288.241 252.445 288.323 252.445C288.453 252.438 288.576 252.386 288.671 252.297H288.636ZM315.738 246.269C315.743 246.125 315.691 245.985 315.593 245.879C315.496 245.774 315.36 245.711 315.217 245.704L291.376 244.495C291.242 244.504 291.116 244.562 291.022 244.658C290.928 244.754 290.873 244.881 290.866 245.015C290.86 245.149 290.903 245.281 290.987 245.386C291.072 245.49 291.191 245.56 291.324 245.582L315.208 246.791C315.352 246.796 315.492 246.744 315.598 246.646C315.703 246.548 315.766 246.413 315.773 246.269H315.738ZM304.492 263.96C304.501 263.889 304.495 263.816 304.475 263.747C304.455 263.678 304.421 263.614 304.375 263.558C304.33 263.502 304.274 263.455 304.21 263.421C304.147 263.388 304.077 263.367 304.005 263.36L285.74 261.56C285.669 261.553 285.597 261.56 285.529 261.58C285.461 261.601 285.398 261.635 285.343 261.68C285.288 261.725 285.242 261.781 285.209 261.844C285.175 261.907 285.155 261.976 285.148 262.047C285.136 262.19 285.18 262.331 285.271 262.442C285.362 262.552 285.493 262.623 285.635 262.638L303.901 264.448H303.953C304.093 264.457 304.232 264.412 304.339 264.321C304.446 264.23 304.514 264.1 304.527 263.96H304.492ZM281.574 273.389C281.694 273.309 281.779 273.185 281.808 273.043C281.837 272.901 281.809 272.753 281.73 272.632L272.702 258.985C272.619 258.868 272.494 258.787 272.353 258.759C272.212 258.732 272.066 258.76 271.945 258.837C271.824 258.917 271.74 259.042 271.711 259.184C271.681 259.325 271.709 259.473 271.789 259.594L280.817 273.241C280.868 273.316 280.937 273.377 281.018 273.419C281.098 273.461 281.187 273.484 281.278 273.485C281.396 273.491 281.512 273.457 281.608 273.389H281.574ZM302.292 277.955C302.289 277.812 302.232 277.675 302.132 277.573C302.031 277.471 301.896 277.412 301.752 277.407L280.278 277.207C280.135 277.207 279.997 277.264 279.896 277.365C279.795 277.466 279.738 277.603 279.738 277.746C279.736 277.818 279.748 277.89 279.774 277.957C279.8 278.024 279.84 278.085 279.89 278.136C279.941 278.187 280.001 278.228 280.068 278.255C280.134 278.282 280.206 278.296 280.278 278.294L301.752 278.494C301.826 278.498 301.899 278.487 301.968 278.461C302.037 278.436 302.1 278.397 302.154 278.347C302.207 278.296 302.25 278.236 302.28 278.168C302.31 278.101 302.325 278.029 302.326 277.955H302.292ZM273.476 310.067C273.519 309.972 277.181 299.882 288.193 297.473C288.334 297.442 288.458 297.356 288.536 297.233C288.615 297.111 288.641 296.963 288.61 296.821C288.575 296.682 288.487 296.562 288.366 296.485C288.244 296.409 288.098 296.383 287.958 296.412C276.346 298.952 272.493 309.606 272.45 309.711C272.405 309.848 272.415 309.998 272.478 310.127C272.542 310.257 272.653 310.357 272.789 310.407H272.963C273.078 310.417 273.194 310.389 273.293 310.328C273.392 310.267 273.468 310.175 273.511 310.067H273.476Z" fill="black"/>
<path d="M290.123 302.709H265.5V307.806H267.648L272.093 335.613H283.531L287.975 307.806H290.123V302.709Z" fill="#2F55D4"/>
<path opacity="0.3" d="M290.123 302.709H265.5V307.806H267.648L272.093 335.613H283.531L287.975 307.806H290.123V302.709Z" fill="white"/>
<path d="M68.4342 148.584L39.7924 139.234L37.2439 132.502L31.4251 132.319L20.866 130.319L22.1359 132.502L35.4261 142.148L38.7052 143.783L68.6604 159.43L68.4342 148.584Z" fill="white" stroke="#263238" stroke-width="1.00396" stroke-miterlimit="10"/>
<path d="M37.2439 132.502L34.5128 130.867L29.0593 132.867L29.9639 133.955L37.2439 132.502Z" fill="white" stroke="#263238" stroke-width="1.00396" stroke-linejoin="round"/>
<path d="M68.4342 148.584L39.7924 139.234L37.2439 132.502L31.4251 132.319L20.866 130.319L22.1359 132.502L35.4261 142.148L38.7052 143.783L68.6604 159.43L68.4342 148.584Z" fill="white"/>
<path opacity="0.5" d="M68.4342 148.584L39.7924 139.234L37.2439 132.502L31.4251 132.319L20.866 130.319L22.1359 132.502L35.4261 142.148L38.7052 143.783L68.6604 159.43L68.4342 148.584Z" fill="#6A84E4" stroke="#263238" stroke-width="1.00396" stroke-miterlimit="10"/>
<path d="M68.4342 148.584L39.7924 139.234L37.2439 132.502L31.4251 132.319L20.866 130.319L22.1359 132.502L35.4261 142.148L38.7052 143.783L68.6604 159.43L68.4342 148.584Z" stroke="#263238" stroke-width="1.00396" stroke-miterlimit="10"/>
<path d="M37.2439 132.502L34.5128 130.867L29.0593 132.867L29.9639 133.955L37.2439 132.502Z" fill="white"/>
<path opacity="0.5" d="M37.2439 132.502L34.5128 130.867L29.0593 132.867L29.9639 133.955L37.2439 132.502Z" fill="#6A84E4" stroke="#263238" stroke-width="1.00396" stroke-linejoin="round"/>
<path d="M37.2439 132.502L34.5128 130.867L29.0593 132.867L29.9639 133.955L37.2439 132.502Z" stroke="#263238" stroke-width="1.00396" stroke-linejoin="round"/>
<path d="M74.514 87.8999C74.514 87.8999 74.0704 91.8139 75.175 94.3275C76.2796 96.8412 82.4116 105.356 82.4116 105.356L70.9653 114.532C70.9653 114.532 66.2163 104.965 65.3117 103.417C64.4071 101.869 63.3199 95.206 66.2685 90.4309C69.217 85.6558 73.4615 84.3686 74.514 87.8999Z" fill="white"/>
<g style="mix-blend-mode:multiply" opacity="0.5">
<path d="M68.6343 100.477L73.6007 110.775L70.9566 114.541L65.964 105.626L68.6343 100.477Z" fill="#6A84E4"/>
</g>
<path d="M74.514 87.8999C74.514 87.8999 74.0704 91.8139 75.175 94.3275C76.2796 96.8412 82.4116 105.356 82.4116 105.356L70.9653 114.532C70.9653 114.532 66.2163 104.965 65.3117 103.417C64.4071 101.869 63.3199 95.206 66.2685 90.4309C69.217 85.6558 73.4615 84.3686 74.514 87.8999Z" stroke="#263238" stroke-width="1.00396" stroke-miterlimit="10"/>
<path d="M78.0626 80.7329C77.3581 76.384 72.3743 67.5383 64.468 67.8776C59.3363 68.1037 56.9357 69.1387 54.7091 70.3999C52.8941 71.4693 51.2023 72.7352 49.6644 74.1748C45.8025 78.8107 44.4457 80.0805 45.1937 83.6292C45.1323 85.0447 45.3541 86.4582 45.846 87.7868C47.0289 90.9441 47.8378 93.0055 48.8642 94.5102C48.5511 95.9801 47.7335 99.8593 47.69 100.747C47.6465 101.634 50.2993 101.016 51.6388 100.677C54.1263 106.244 58.684 110.105 60.1017 110.549C62.5719 111.323 66.4772 107.261 68.5473 104.113C70.6173 100.964 69.0517 97.4239 69.0604 96.0149C69.0691 94.6059 73.7138 91.5095 75.4359 90.5266C77.1581 89.5438 78.7585 85.0731 78.0626 80.7329Z" fill="white"/>
<g style="mix-blend-mode:multiply" opacity="0.5">
<path d="M45.2285 83.6292C45.1671 85.0447 45.3889 86.4582 45.8808 87.7868C47.0637 90.9441 47.8726 93.0055 48.899 94.5102C48.5858 95.9801 47.7683 99.8593 47.7248 100.747C47.6813 101.634 50.3341 101.016 51.6736 100.677C54.1611 106.244 58.7188 110.105 60.1365 110.549C62.6067 111.323 66.512 107.261 68.5821 104.113C69.0992 103.326 69.435 102.435 69.5649 101.503C69.4518 101.094 69.3736 100.842 69.3736 100.842C69.3736 100.842 68.2081 105.322 65.8944 104.739C63.5808 104.156 60.0408 99.5201 58.0664 97.9197C56.092 96.3193 56.9009 94.2145 56.5095 91.8313C56.1181 89.4481 50.2732 87.3519 49.8818 85.9864C49.4904 84.6208 50.856 78.9672 50.856 78.9672C50.856 78.9672 53.0739 76.01 52.5955 77.2277C52.2574 78.2835 52.1348 79.3965 52.2349 80.5006C52.335 81.6048 52.6558 82.6775 53.1783 83.6553C53.5449 84.4269 54.1265 85.0762 54.8533 85.5252C55.58 85.9742 56.4209 86.2038 57.2749 86.1864L59.3972 75.6708L54.9178 71.9655L49.6992 74.14C45.8026 78.8107 44.4718 80.0806 45.2285 83.6292Z" fill="#6A84E4"/>
</g>
<path d="M78.0626 80.7329C77.3581 76.384 72.3743 67.5383 64.468 67.8776C59.3363 68.1037 56.9357 69.1387 54.7091 70.3999C52.8941 71.4693 51.2023 72.7352 49.6644 74.1748C45.8025 78.8107 44.4457 80.0805 45.1937 83.6292C45.1323 85.0447 45.3541 86.4582 45.846 87.7868C47.0289 90.9441 47.8378 93.0055 48.8642 94.5102C48.5511 95.9801 47.7335 99.8593 47.69 100.747C47.6465 101.634 50.2993 101.016 51.6388 100.677C54.1263 106.244 58.684 110.105 60.1017 110.549C62.5719 111.323 66.4772 107.261 68.5473 104.113C70.6173 100.964 69.0517 97.4239 69.0604 96.0149C69.0691 94.6059 73.7138 91.5095 75.4359 90.5266C77.1581 89.5438 78.7585 85.0731 78.0626 80.7329Z" stroke="#263238" stroke-miterlimit="10"/>
<path d="M49.9427 91.8835L50.8125 94.371C50.8125 94.371 52.6825 94.9886 54.9613 92.501" stroke="#263238" stroke-miterlimit="10" stroke-linecap="round"/>
<path d="M56.3704 103.504C56.3704 103.504 58.4404 103.295 59.2754 100.39" stroke="#263238" stroke-miterlimit="10" stroke-linecap="round"/>
<path d="M48.4902 89.8047C48.4902 89.8047 49.1077 87.9347 52.8391 87.9347" stroke="#263238" stroke-miterlimit="10" stroke-linecap="round"/>
<path d="M67.6166 64.4158C64.9053 64.0259 62.1711 63.8167 59.432 63.7896C59.432 63.7896 51.2387 59.0667 43.3672 64.1027C35.4957 69.1387 39.2792 77.9583 39.2792 80.1588C39.2792 82.3594 36.7569 82.3681 38.3312 85.2035C39.9055 88.039 45.2285 86.4734 45.2285 86.4734C45.2848 85.404 45.5674 84.3586 46.0577 83.4065C46.548 82.4544 47.2348 81.6173 48.0727 80.9503C50.9082 78.7498 53.1696 78.2714 54.1089 78.9063C54.1089 78.9063 53.4827 83.6292 54.4221 85.5167C54.4221 85.5167 57.5707 87.091 58.5187 87.091C59.4668 87.091 57.9012 88.4217 61.0411 89.6046C61.6131 89.8101 62.225 89.8801 62.8287 89.8091C63.4324 89.7382 64.0114 89.5283 64.5202 89.1958C64.9812 87.2823 65.9901 84.4033 67.8688 85.0731C70.626 86.0559 73.1397 92.8402 69.4084 95.1538C73.8964 95.9714 79.3325 88.0303 79.6543 80.7938C79.9762 73.5572 72.2786 65.2334 67.6166 64.4158Z" fill="#263238"/>
<path d="M54.2481 75.8012C54.2481 75.8012 56.5617 74.5574 59.3972 77.219C62.2327 79.8805 67.7471 83.4379 75.0532 81.4809" stroke="white" stroke-width="0.5" stroke-linecap="round" stroke-linejoin="round"/>
<path d="M53.9263 73.6703C53.9263 73.6703 55.518 71.1827 58.1795 71.1827C60.841 71.1827 67.0599 74.9141 72.0264 74.9141" stroke="white" stroke-width="0.5" stroke-linecap="round" stroke-linejoin="round"/>
<path d="M52.1172 78.4628C52.1172 78.4628 49.099 74.7401 46.2635 77.7582C43.4281 80.7764 45.2285 83.6292 45.2285 83.6292" stroke="white" stroke-width="0.5" stroke-linecap="round" stroke-linejoin="round"/>
<path d="M40.0533 80.9503C41.7829 79.3906 42.858 77.234 43.0627 74.9141C43.4194 71.0088 48.7511 67.634 52.1171 70.8348" stroke="white" stroke-width="0.5" stroke-linecap="round" stroke-linejoin="round"/>
<path d="M45.5503 66.7468C45.5503 66.7468 50.8821 61.5977 55.3179 68.1646" stroke="white" stroke-width="0.5" stroke-linecap="round" stroke-linejoin="round"/>
<path d="M88.9436 319.913C88.9436 319.913 92.2227 325.01 91.8574 328.289L91.5007 331.568C91.5007 331.568 79.4717 334.865 76.9233 334.865C74.3748 334.865 60.8845 333.586 60.8845 333.586L60.3018 331.273C60.261 331.102 60.2802 330.922 60.3562 330.764C60.4322 330.605 60.5604 330.478 60.7193 330.403L72.7483 324.793L76.5405 320.644L88.9436 319.913Z" fill="white" stroke="#263238" stroke-width="1.00396" stroke-miterlimit="10"/>
<path d="M78.7498 332.299C82.0114 332.551 88.2043 330.559 91.7965 329.29L91.5442 331.568C91.5442 331.568 79.4717 334.865 76.9232 334.865C74.3748 334.865 60.8845 333.586 60.8845 333.586L60.467 331.934C62.6241 331.942 74.4357 331.969 78.7498 332.299Z" fill="#6A84E4" stroke="#263238" stroke-width="1.00396" stroke-miterlimit="10"/>
<path d="M72.7657 324.793L55.2571 332.412C55.2571 332.412 53.761 336.161 55.2571 336.909C56.7531 337.657 89.3698 336.909 89.3698 336.909C89.3698 336.909 91.6225 330.986 88.0651 327.011C84.5077 323.036 72.7657 324.793 72.7657 324.793Z" fill="white" stroke="#263238" stroke-width="1.00396" stroke-miterlimit="10"/>
<path d="M89.3698 336.909C89.3698 336.909 56.7531 337.657 55.2571 336.909C54.5351 336.544 54.509 335.491 54.6743 334.491H89.9439C89.8286 335.313 89.6364 336.123 89.3698 336.909Z" fill="#6A84E4" stroke="#263238" stroke-width="1.00396" stroke-miterlimit="10"/>
<path d="M64.4854 192.404C64.4854 192.404 59.9104 212.678 58.1795 225.36C56.4486 238.041 55.431 263.447 55.7963 266.361C56.1616 269.275 74.3748 318.096 74.3748 318.096L76.1926 322.444L88.9436 319.896C88.9436 319.896 83.1161 301.318 80.9329 291.115C78.7498 280.912 73.9747 264.152 73.9747 261.238C73.9747 258.324 85.2818 202.676 86.0907 199.023C86.8996 195.37 90.5701 189.76 90.5701 189.76L66.1554 189.264L64.4854 192.404Z" fill="#6A84E4" stroke="#263238" stroke-width="1.00396" stroke-miterlimit="10"/>
<path d="M64.4854 192.404C64.4854 192.404 61.8065 210.921 62.9111 223.794C64.0157 236.667 66.3902 264.074 66.3902 268.153C66.3902 272.232 72.9744 296.595 73.3485 304.249C73.9312 315.304 73.1136 320.774 73.1136 320.774L72.7222 324.784C72.7222 324.784 80.4024 325.88 82.081 326.358C84.0199 326.858 86.0208 327.075 88.0216 327.002C88.0216 327.002 90.8136 314.712 90.8136 304.24C90.8136 293.768 88.4913 272.215 87.3345 263.482C86.1777 254.75 89.8221 221.063 91.8921 214.774C93.9622 208.486 98.4851 195.17 95.4408 188.368C92.3966 181.566 64.4854 192.404 64.4854 192.404Z" fill="#6A84E4" stroke="#263238" stroke-width="1.00396" stroke-miterlimit="10"/>
<path d="M98.8243 184.958L98.546 193.239C98.546 193.239 93.5882 194.222 86.9083 195.378C81.3939 196.335 67.547 195.126 62.885 194.674C62.4602 194.636 62.0674 194.432 61.7921 194.107C61.5168 193.781 61.3813 193.36 61.4151 192.934L61.8674 185.454L98.8243 184.958Z" fill="#263238"/>
<path d="M79.4456 102.416C79.4456 102.416 71.6176 110.879 68.669 116.142C65.7205 121.404 64.555 129.467 63.4504 135.816C62.3457 142.165 65.3378 157.073 64.4941 163.919L61.8239 185.48C61.8239 185.48 61.2498 186.942 63.172 188.542C65.0943 190.142 74.4792 190.725 82.9595 191.151C86.0559 191.308 95.3017 189.316 96.8151 189.22C98.6416 189.107 98.7025 186.785 98.7808 184.958C99.1461 176.374 100.694 153.49 101.712 143.522C103.808 123.195 92.3357 103.573 79.4456 102.416Z" fill="white" stroke="#263238" stroke-width="1.00396" stroke-miterlimit="10"/>
<g style="mix-blend-mode:multiply">
<path d="M100.755 155.082C101.103 150.567 101.451 146.471 101.755 143.522C101.842 142.652 101.895 141.783 101.938 140.913L81.1417 144.392L63.2764 138.304C63.2784 142 63.4874 145.694 63.9027 149.367L81.4287 154.273L100.755 155.082Z" fill="#6A84E4"/>
</g>
<g style="mix-blend-mode:multiply">
<path d="M78.6715 103.269C77.4886 104.582 75.1402 107.252 72.9049 110.088L86.1081 123.509L90.457 121.769L78.6715 103.269Z" fill="#6A84E4"/>
</g>
<path d="M79.4456 102.416C79.4456 102.416 71.6176 110.879 68.669 116.142C67.7947 117.741 67.0865 119.425 66.5555 121.169L82.2985 102.982C81.3684 102.7 80.4128 102.511 79.4456 102.416V102.416Z" fill="#263238"/>
<g style="mix-blend-mode:multiply">
<path d="M64.0592 132.389L81.1417 138.008L101.886 135.625C101.561 130.457 100.413 125.374 98.4851 120.569L81.7592 127.275L66.8077 120.499C65.5851 124.385 64.6662 128.361 64.0592 132.389V132.389Z" fill="#6A84E4"/>
</g>
<g style="mix-blend-mode:multiply">
<path d="M93.4664 176.374C84.8023 177.828 75.9123 177.102 67.5992 174.26L63.433 172.834L62.137 183.271L66.886 184.602C75.9141 187.126 85.3499 187.853 94.658 186.742L98.4938 186.281C98.6934 185.858 98.8058 185.399 98.8243 184.932C98.9287 182.61 99.1113 179.235 99.3462 175.365L93.4664 176.374Z" fill="#6A84E4"/>
</g>
<g style="mix-blend-mode:multiply">
<path d="M95.7888 162.162C87.1243 163.622 78.2321 162.892 69.9215 160.039L64.6159 158.221C64.7475 160.117 64.7213 162.019 64.5376 163.91L63.92 168.928L69.2083 170.407C78.2329 172.934 87.6658 173.664 96.9717 172.555L99.581 172.242C99.7984 168.763 100.051 165.058 100.32 161.396L95.7888 162.162Z" fill="#6A84E4"/>
</g>
<path d="M14.1872 125.38L31.0047 138.902L31.7295 138L14.912 124.479L14.1872 125.38Z" fill="#263238"/>
<path d="M87.5432 111.801C87.5432 111.801 93.71 116.002 93.8491 125.927C93.91 130.275 93.4577 134.337 92.4575 141.461C91.4572 148.584 85.247 171.781 80.4111 174.599C75.5751 177.418 68.0689 172.094 68.0689 172.094L31.7643 147.993L22.9883 140.904L18.6394 132.693L20.0049 130.084L30.7119 138.295L24.9453 132.963L26.076 131.528L28.1634 132.981L34.2519 135.259L35.5827 143.957L37.4614 145.244L72.1916 157.934C72.1916 157.934 71.7568 139.243 72.0786 135.668C72.4004 132.093 72.844 123.109 76.671 116.594" fill="white"/>
<g style="mix-blend-mode:multiply" opacity="0.5">
<path d="M71.9481 143.809C71.9481 150.263 72.1655 157.934 72.1655 157.934L37.4701 145.297L35.5913 144.009L34.2606 135.312L28.1721 133.033L26.0934 131.554L24.9626 132.989L30.7119 138.295L20.0049 130.084L18.7089 132.65L23.0578 140.861L31.8339 147.993L34.0431 149.463L82.0114 164.919L71.9481 143.809Z" fill="#6A84E4"/>
</g>
<path d="M87.5432 111.801C87.5432 111.801 93.71 116.002 93.8491 125.927C93.91 130.275 93.4577 134.337 92.4575 141.461C91.4572 148.584 85.247 171.781 80.4111 174.599C75.5751 177.418 68.0689 172.094 68.0689 172.094L31.7643 147.993L22.9883 140.904L18.6394 132.693L20.0049 130.084L30.7119 138.295L24.9453 132.963L26.076 131.528L28.1634 132.981L34.2519 135.259L35.5827 143.957L37.4614 145.244L72.1916 157.934C72.1916 157.934 71.7568 139.243 72.0786 135.668C72.4004 132.093 72.844 123.109 76.671 116.594" stroke="#263238" stroke-width="1.00396" stroke-miterlimit="10"/>
<path d="M72.1916 157.934L85.4471 167.502L88.8827 161.414C88.8827 161.414 91.2572 159.544 91.6051 158.134C91.953 156.725 91.5094 154.438 91.866 153.029C92.2226 151.62 93.997 150.298 94.1623 146.888C94.3275 143.479 94.1623 140.635 94.1623 140.635C94.1623 140.635 97.0325 128.832 96.7194 123.7C96.4063 118.568 91.4572 109.496 87.4911 109.296C83.5249 109.096 78.3671 109.697 74.3661 115.75C70.3651 121.804 71.1827 139.478 70.5565 140.582C69.9302 141.687 70.8 147.14 70.8 147.14C70.4524 147.4 70.164 147.73 69.954 148.11C69.7441 148.489 69.6173 148.909 69.5823 149.341C69.5127 150.759 71.0435 154.247 71.0435 154.247L72.1916 157.934Z" fill="white" stroke="#263238" stroke-width="1.00396" stroke-miterlimit="10"/>
<g style="mix-blend-mode:multiply">
<path d="M70.9044 136.042C70.9317 137.56 70.8181 139.077 70.5652 140.574C70.0085 141.565 70.6434 146.045 70.7826 146.958C78.2382 149.274 86.1218 149.868 93.8404 148.697C94.0063 148.092 94.1054 147.471 94.1362 146.845C94.3101 143.444 94.1362 140.591 94.1362 140.591C94.1362 140.591 94.3884 139.539 94.7363 137.938C86.7426 138.446 78.7172 137.808 70.9044 136.042V136.042Z" fill="#6A84E4"/>
</g>
<g style="mix-blend-mode:multiply">
<path d="M73.8268 116.716C72.5831 119.212 71.8872 122.961 71.4871 126.762C79.3831 129.775 87.8963 130.811 96.2845 129.78C96.6192 127.768 96.7677 125.73 96.7281 123.691C96.5775 122.08 96.1967 120.498 95.5974 118.994C88.2731 119.165 80.957 118.4 73.8268 116.716V116.716Z" fill="#6A84E4"/>
</g>
<path d="M71.0435 154.342L72.1656 157.934L85.421 167.502L88.8566 161.414C88.8566 161.414 91.2311 159.544 91.579 158.134C91.6411 157.889 91.679 157.639 91.6921 157.386C84.7068 157.266 77.7664 156.243 71.0435 154.342V154.342Z" fill="#263238"/>
<path d="M80.6372 326.245C80.6372 326.245 80.9329 318.713 82.3768 307.702C83.8206 296.69 80.3502 281.052 79.7674 278.442C79.1847 275.833 80.0632 270.04 79.4804 268.005C78.8977 265.97 76.0796 257.289 77.7408 247.217C79.4021 237.145 80.7503 210.521 80.7503 210.521C80.7503 210.521 76.5666 207.12 75.3402 202.693C74.1139 198.266 75.0532 196.874 75.0532 196.874" stroke="#263238" stroke-width="1.00396" stroke-miterlimit="10"/>
<path d="M82.5768 197.283L80.9677 206.19" stroke="#263238" stroke-width="1.00396" stroke-miterlimit="10"/>
</g>
<defs>
<clipPath id="clip0_6_109">
<rect width="354" height="343.563" fill="white"/>
</clipPath>
</defs>
</svg>
